<svg width="311" height="310" viewBox="0 0 311 310" fill="none" xmlns="http://www.w3.org/2000/svg">
<path d="M89.25 0C92.6367 0 95.625 1.39453 98.2148 3.78516C100.605 6.375 102 9.36328 102 12.75V70.125C102 73.7109 100.605 76.6992 98.2148 79.0898C95.625 81.6797 92.6367 82.875 89.25 82.875H60.5625L35.6602 101.602C35.2617 102 34.6641 102 34.0664 102C33.4688 102 32.8711 101.801 32.4727 101.402C32.0742 101.004 31.875 100.406 31.875 99.6094V82.875H12.75C9.16406 82.875 6.17578 81.6797 3.78516 79.0898C1.19531 76.6992 0 73.7109 0 70.125V12.75C0 9.36328 1.19531 6.375 3.78516 3.78516C6.17578 1.39453 9.16406 0 12.75 0H89.25ZM92.4375 70.125V12.75C92.4375 11.9531 92.0391 11.1562 91.4414 10.5586C90.8438 9.96094 90.0469 9.5625 89.25 9.5625H12.75C11.7539 9.5625 10.957 9.96094 10.3594 10.5586C9.76172 11.1562 9.5625 11.9531 9.5625 12.75V70.125C9.5625 71.1211 9.76172 71.918 10.3594 72.5156C10.957 73.1133 11.7539 73.3125 12.75 73.3125H41.4375V85.2656L57.375 73.3125H89.25C90.0469 73.3125 90.8438 73.1133 91.4414 72.5156C92.0391 71.918 92.4375 71.1211 92.4375 70.125Z" fill="#26B1FF"/>
<path d="M135.375 249C137.4 249 139.188 249.834 140.736 251.264C142.166 252.812 143 254.6 143 256.625V290.938C143 293.082 142.166 294.869 140.736 296.299C139.188 297.848 137.4 298.562 135.375 298.562H118.219L103.326 309.762C103.088 310 102.73 310 102.373 310C102.016 310 101.658 309.881 101.42 309.643C101.182 309.404 101.063 309.047 101.063 308.57V298.562H89.625C87.4805 298.562 85.6934 297.848 84.2637 296.299C82.7148 294.869 82 293.082 82 290.938V256.625C82 254.6 82.7148 252.812 84.2637 251.264C85.6934 249.834 87.4805 249 89.625 249H135.375ZM137.281 290.938V256.625C137.281 256.148 137.043 255.672 136.686 255.314C136.328 254.957 135.852 254.719 135.375 254.719H89.625C89.0293 254.719 88.5527 254.957 88.1953 255.314C87.8379 255.672 87.7188 256.148 87.7188 256.625V290.938C87.7188 291.533 87.8379 292.01 88.1953 292.367C88.5527 292.725 89.0293 292.844 89.625 292.844H106.781V299.992L116.312 292.844H135.375C135.852 292.844 136.328 292.725 136.686 292.367C137.043 292.01 137.281 291.533 137.281 290.938Z" fill="#26B1FF"/>
<path d="M192.875 114C188.393 114 184.437 115.844 181.01 119.006C177.846 122.431 176 126.383 176 130.862V206.741C176 211.484 177.846 215.436 181.01 218.597C184.437 222.022 188.393 223.603 192.875 223.603H230.844L263.803 248.369C264.857 249.16 266.176 249.16 267.23 248.633C268.285 248.106 268.812 247.052 268.812 245.735V223.603H294.125C298.871 223.603 302.826 222.022 305.99 218.597C309.418 215.436 311 211.484 311 206.741V130.862C311 126.383 309.418 122.431 305.99 119.006C302.826 115.844 298.871 114 294.125 114H192.875Z" fill="#26B1FF"/>
</svg>
