<svg width="175" height="30" viewBox="0 0 175 30" fill="none" xmlns="http://www.w3.org/2000/svg">
<path d="M19.4842 9.83519C19.4842 9.83519 18.0692 12.6556 16.2656 16.2715H9.73212L10.9164 22.9603C11.1351 24.1956 12.3179 25.0204 13.5582 24.8026L33.1151 21.3682C34.3555 21.1504 35.1837 19.9725 34.965 18.7372L32.8044 6.53393C32.5857 5.29866 31.4029 4.47384 30.1626 4.69166L21.2759 6.25221L19.4842 9.83519Z" fill="#26B1FF"/>
<path d="M17.8144 24.0552L18.7725 29.4662L22.7132 23.1949L17.8144 24.0552Z" fill="#26B1FF"/>
<path d="M7.7344 0.0467288L7.72266 0.0233645L7.71093 0.0467288H7.70806L7.70949 0.0495852L0 15.3963H15.419L15.4307 15.4196L15.4425 15.3963H15.4453L15.4439 15.3934C18.4546 9.40016 20.1426 6.03998 23.1534 0.0467279L7.7344 0.0467288Z" fill="#26B1FF"/>
<path d="M7.7344 0.0233642L7.72266 0L7.71093 0.0233642H7.70806L7.70949 0.0262207L0 15.3729H15.419L15.4307 15.3963L15.4425 15.3729H15.4453L15.4439 15.3701L23.1534 0.0233633L7.7344 0.0233642Z" fill="#26B1FF"/>
<path d="M47.627 13.687C47.627 12.3697 47.912 11.198 48.482 10.172C49.052 9.13333 49.8437 8.329 50.857 7.759C51.883 7.17633 53.042 6.885 54.334 6.885C55.9173 6.885 57.2727 7.303 58.4 8.139C59.5273 8.975 60.281 10.115 60.661 11.559H57.089C56.823 11.0017 56.443 10.5773 55.949 10.286C55.4677 9.99467 54.9167 9.849 54.296 9.849C53.2953 9.849 52.4847 10.1973 51.864 10.894C51.2433 11.5907 50.933 12.5217 50.933 13.687C50.933 14.8523 51.2433 15.7833 51.864 16.48C52.4847 17.1767 53.2953 17.525 54.296 17.525C54.9167 17.525 55.4677 17.3793 55.949 17.088C56.443 16.7967 56.823 16.3723 57.089 15.815H60.661C60.281 17.259 59.5273 18.399 58.4 19.235C57.2727 20.0583 55.9173 20.47 54.334 20.47C53.042 20.47 51.883 20.185 50.857 19.615C49.8437 19.0323 49.052 18.228 48.482 17.202C47.912 16.176 47.627 15.0043 47.627 13.687ZM68.1677 9.659C69.3837 9.659 70.359 10.0643 71.0937 10.875C71.8283 11.673 72.1957 12.775 72.1957 14.181V20.375H68.9657V14.618C68.9657 13.9087 68.782 13.3577 68.4147 12.965C68.0473 12.5723 67.5533 12.376 66.9327 12.376C66.312 12.376 65.818 12.5723 65.4507 12.965C65.0833 13.3577 64.8997 13.9087 64.8997 14.618V20.375H61.6507V6.315H64.8997V11.198C65.229 10.7293 65.6787 10.3557 66.2487 10.077C66.8187 9.79833 67.4583 9.659 68.1677 9.659ZM72.8074 15.055C72.8074 13.9657 73.0101 13.0093 73.4154 12.186C73.8334 11.3627 74.3971 10.7293 75.1064 10.286C75.8157 9.84267 76.6074 9.621 77.4814 9.621C78.2287 9.621 78.8811 9.773 79.4384 10.077C80.0084 10.381 80.4454 10.78 80.7494 11.274V9.773H83.9984V20.375H80.7494V18.874C80.4327 19.368 79.9894 19.767 79.4194 20.071C78.8621 20.375 78.2097 20.527 77.4624 20.527C76.6011 20.527 75.8157 20.3053 75.1064 19.862C74.3971 19.406 73.8334 18.7663 73.4154 17.943C73.0101 17.107 72.8074 16.1443 72.8074 15.055ZM80.7494 15.074C80.7494 14.2633 80.5214 13.6237 80.0654 13.155C79.6221 12.6863 79.0774 12.452 78.4314 12.452C77.7854 12.452 77.2344 12.6863 76.7784 13.155C76.3351 13.611 76.1134 14.2443 76.1134 15.055C76.1134 15.8657 76.3351 16.5117 76.7784 16.993C77.2344 17.4617 77.7854 17.696 78.4314 17.696C79.0774 17.696 79.6221 17.4617 80.0654 16.993C80.5214 16.5243 80.7494 15.8847 80.7494 15.074ZM91.2579 17.62V20.375H89.6049C88.4269 20.375 87.5086 20.09 86.8499 19.52C86.1912 18.9373 85.8619 17.9937 85.8619 16.689V12.471H84.5699V9.773H85.8619V7.189H89.1109V9.773H91.2389V12.471H89.1109V16.727C89.1109 17.0437 89.1869 17.2717 89.3389 17.411C89.4909 17.5503 89.7442 17.62 90.0989 17.62H91.2579ZM96.8366 17.335L99.1356 9.773H102.594L98.8316 20.375H94.8226L91.0606 9.773H94.5376L96.8366 17.335ZM112.955 14.903C112.955 15.207 112.936 15.5237 112.898 15.853H105.545C105.596 16.5117 105.805 17.0183 106.172 17.373C106.552 17.715 107.015 17.886 107.559 17.886C108.37 17.886 108.934 17.544 109.25 16.86H112.708C112.531 17.5567 112.208 18.1837 111.739 18.741C111.283 19.2983 110.707 19.7353 110.01 20.052C109.314 20.3687 108.535 20.527 107.673 20.527C106.635 20.527 105.71 20.3053 104.899 19.862C104.089 19.4187 103.455 18.7853 102.999 17.962C102.543 17.1387 102.315 16.176 102.315 15.074C102.315 13.972 102.537 13.0093 102.98 12.186C103.436 11.3627 104.07 10.7293 104.88 10.286C105.691 9.84267 106.622 9.621 107.673 9.621C108.699 9.621 109.611 9.83633 110.409 10.267C111.207 10.6977 111.828 11.312 112.271 12.11C112.727 12.908 112.955 13.839 112.955 14.903ZM109.63 14.048C109.63 13.4907 109.44 13.0473 109.06 12.718C108.68 12.3887 108.205 12.224 107.635 12.224C107.091 12.224 106.628 12.3823 106.248 12.699C105.881 13.0157 105.653 13.4653 105.564 14.048H109.63ZM116.918 11.54C117.298 10.9573 117.773 10.5013 118.343 10.172C118.913 9.83 119.547 9.659 120.243 9.659V13.098H119.35C118.54 13.098 117.932 13.2753 117.526 13.63C117.121 13.972 116.918 14.58 116.918 15.454V20.375H113.669V9.773H116.918V11.54ZM125.109 20.527C124.184 20.527 123.361 20.3687 122.639 20.052C121.917 19.7353 121.347 19.3047 120.929 18.76C120.511 18.2027 120.277 17.582 120.226 16.898H123.437C123.475 17.2653 123.646 17.563 123.95 17.791C124.254 18.019 124.628 18.133 125.071 18.133C125.476 18.133 125.787 18.057 126.002 17.905C126.23 17.7403 126.344 17.5313 126.344 17.278C126.344 16.974 126.186 16.7523 125.869 16.613C125.552 16.461 125.039 16.2963 124.33 16.119C123.57 15.9417 122.937 15.758 122.43 15.568C121.923 15.3653 121.486 15.055 121.119 14.637C120.752 14.2063 120.568 13.63 120.568 12.908C120.568 12.3 120.733 11.749 121.062 11.255C121.404 10.7483 121.898 10.3493 122.544 10.058C123.203 9.76667 123.982 9.621 124.881 9.621C126.211 9.621 127.256 9.95033 128.016 10.609C128.789 11.2677 129.232 12.1417 129.346 13.231H126.344C126.293 12.8637 126.129 12.5723 125.85 12.357C125.584 12.1417 125.229 12.034 124.786 12.034C124.406 12.034 124.115 12.11 123.912 12.262C123.709 12.4013 123.608 12.5977 123.608 12.851C123.608 13.155 123.766 13.383 124.083 13.535C124.412 13.687 124.919 13.839 125.603 13.991C126.388 14.1937 127.028 14.3963 127.522 14.599C128.016 14.789 128.447 15.1057 128.814 15.549C129.194 15.9797 129.39 16.5623 129.403 17.297C129.403 17.9177 129.226 18.475 128.871 18.969C128.529 19.4503 128.029 19.8303 127.37 20.109C126.724 20.3877 125.97 20.527 125.109 20.527ZM132.025 8.671C131.455 8.671 130.986 8.50633 130.619 8.177C130.264 7.835 130.087 7.417 130.087 6.923C130.087 6.41633 130.264 5.99833 130.619 5.669C130.986 5.327 131.455 5.156 132.025 5.156C132.582 5.156 133.038 5.327 133.393 5.669C133.76 5.99833 133.944 6.41633 133.944 6.923C133.944 7.417 133.76 7.835 133.393 8.177C133.038 8.50633 132.582 8.671 132.025 8.671ZM133.64 9.773V20.375H130.391V9.773H133.64ZM140.903 17.62V20.375H139.25C138.072 20.375 137.154 20.09 136.495 19.52C135.837 18.9373 135.507 17.9937 135.507 16.689V12.471H134.215V9.773H135.507V7.189H138.756V9.773H140.884V12.471H138.756V16.727C138.756 17.0437 138.832 17.2717 138.984 17.411C139.136 17.5503 139.39 17.62 139.744 17.62H140.903ZM152.543 9.773L145.893 25.41H142.397L144.829 20.014L140.516 9.773H144.145L146.596 16.404L149.028 9.773H152.543Z" fill="#003A57"/>
</svg>
