<svg width="437" height="347" viewBox="0 0 437 347" fill="none" xmlns="http://www.w3.org/2000/svg">
<g clip-path="url(#clip0)">
<path opacity="0.1" d="M256.285 58.6413C228.634 57.6811 202.295 48.7667 177.147 39.0117C152 29.2566 127.092 18.4475 100.103 13.2798C82.7439 9.9556 62.89 9.48619 48.9063 18.7804C35.4439 27.7417 31.0946 43.168 28.7576 57.4976C26.9974 68.2768 25.9635 79.6193 30.787 89.7115C34.1323 96.7184 40.0752 102.607 44.181 109.341C58.4808 132.692 48.3766 161.488 32.8805 184.288C25.6174 194.986 17.1794 205.198 11.5739 216.574C5.96854 227.951 3.37091 241.004 8.27564 252.62C13.1419 264.142 24.733 272.779 37.2854 278.86C62.7874 291.214 92.8268 294.747 122.14 296.748C187.008 301.182 252.218 299.262 317.257 297.341C341.328 296.629 365.501 295.908 389.179 292.191C402.329 290.125 415.903 286.852 425.452 278.941C437.568 268.9 440.572 251.895 432.454 239.306C418.829 218.187 381.185 212.943 371.649 190.275C366.411 177.801 371.794 163.907 379.408 152.334C395.745 127.516 423.127 105.739 424.571 77.3704C425.563 57.8817 412.395 38.3716 392.041 29.1499C370.709 19.4503 341.118 20.6793 325.387 36.6774C309.178 53.162 280.698 59.4862 256.285 58.6413Z" fill="#26B1FF"/>
<path d="M186.042 294.657L39.8061 293.945L25.2756 259.904L76.6557 256.179L67.7007 218.857L169.324 205.701L72.0116 171.913L80.6077 169.873L237.085 195.37L228.468 253.614L216.15 285.623L186.042 294.657Z" fill="#26B1FF"/>
<path d="M42.0491 279.688C42.0491 279.688 51.0212 278.254 56.4044 284.586C56.4044 284.586 52.4567 287.693 43.9631 283.392L42.0491 279.688Z" fill="#26B1FF"/>
<path d="M41.1093 279.547C41.1093 279.547 35.3843 286.584 38.2041 294.418C38.2041 294.418 42.8696 292.553 43.378 283.054L41.1093 279.547Z" fill="#26B1FF"/>
<path d="M35.9653 267.978C35.9653 267.978 39.5542 261.402 53.9095 270.607C53.9095 270.607 51.9954 275.028 45.6552 274.669C39.3149 274.311 37.6401 271.443 35.9653 267.978Z" fill="#26B1FF"/>
<path d="M35.0382 267.504C35.0382 267.504 27.5914 266.651 26.8694 283.678C26.8694 283.678 31.5904 284.655 34.9442 279.269C38.2981 273.884 36.9224 270.863 35.0382 267.504Z" fill="#26B1FF"/>
<path d="M30.7014 253.922C30.7014 253.922 34.8884 242.332 50.0811 250.576C50.0811 250.576 46.6119 261.21 32.2566 257.865L30.7014 253.922Z" fill="#26B1FF"/>
<path d="M26.0361 236.596C26.0361 236.596 33.9316 224.887 47.928 235.743C47.928 235.743 43.0233 246.735 27.2324 240.761L26.0361 236.596Z" fill="#26B1FF"/>
<path d="M24.3613 220.107C24.3613 220.107 33.5727 209.35 47.4324 220.107C47.4324 220.107 38.6996 229.547 24.3613 222.856V220.107Z" fill="#26B1FF"/>
<path d="M22.9258 204.092C22.9258 204.092 32.2567 192.861 45.5354 203.495C45.5354 203.495 35.0082 213.412 22.9258 206.721V204.092Z" fill="#26B1FF"/>
<path d="M23.7632 189.874C23.7632 189.874 33.5897 175.416 46.0139 185.214C46.0139 185.214 35.4867 197.64 23.7632 192.622V189.874Z" fill="#26B1FF"/>
<path d="M26.0361 173.265C26.0361 173.265 36.4437 158.927 48.5261 169.92C48.5261 169.92 36.2045 182.346 26.0361 175.894V173.265Z" fill="#26B1FF"/>
<path d="M29.5054 158.419C29.5054 158.419 41.827 144.943 52.5764 150.312C52.5764 150.312 39.7378 164.624 28.967 161.995L29.5054 158.419Z" fill="#26B1FF"/>
<path d="M33.812 144.346C33.812 144.346 48.0306 127.84 56.302 133.353C56.302 133.353 45.826 146.155 32.8037 147.435L33.812 144.346Z" fill="#26B1FF"/>
<path d="M40.0282 128.023C40.0282 128.023 52.4737 114.547 61.5654 117.893C61.5654 117.893 50.9186 131.872 38.3577 132.231L40.0282 128.023Z" fill="#26B1FF"/>
<path d="M45.655 112.755C45.655 112.755 59.4122 99.8507 65.3936 102.121C65.3936 102.121 55.4645 116.459 45.0569 115.623L45.655 112.755Z" fill="#26B1FF"/>
<path d="M51.158 98.6558C51.158 98.6558 63.0011 83.238 69.4653 84.4328C69.4653 84.4328 62.2833 98.1778 51.158 100.222V98.6558Z" fill="#26B1FF"/>
<path d="M57.1307 79.6448C57.1307 79.6448 67.5982 67.8287 73.2548 67.8543C73.2548 67.8543 64.992 83.6433 56.6992 83.4982L57.1307 79.6448Z" fill="#26B1FF"/>
<path d="M60.6683 66.9881L70.7811 42.3743C70.7811 42.3743 71.2853 64.624 59.3823 71.5541L60.6683 66.9881Z" fill="#26B1FF"/>
<path d="M64.7742 39.8437C64.7742 39.8437 66.449 19.2881 65.3723 17.6154C65.3723 17.6154 72.6012 34.7059 64.7058 48.9246L64.7742 39.8437Z" fill="#26B1FF"/>
<path d="M30.3085 253.649C30.3085 253.649 19.824 247.158 13.0352 263.037C13.0352 263.037 22.3661 269.224 31.5433 257.698L30.3085 253.649Z" fill="#26B1FF"/>
<path d="M25.6985 235.935C25.6985 235.935 12.8386 230.076 6.60083 246.654C6.60083 246.654 16.5342 253.482 26.8692 240.125L25.6985 235.935Z" fill="#26B1FF"/>
<path d="M23.7632 221.093C23.7632 221.093 14.5519 210.335 0.692139 221.093C0.692139 221.093 9.42496 230.533 23.7632 223.841V221.093Z" fill="#26B1FF"/>
<path d="M22.6096 204.092C22.6096 204.092 13.2787 192.861 0 203.495C0 203.495 10.5272 213.412 22.6096 206.721V204.092Z" fill="#26B1FF"/>
<path d="M23.7632 190.283C23.7632 190.283 17.2179 174.089 2.99072 181.053C2.99072 181.053 10.6811 195.413 23.1822 192.972L23.7632 190.283Z" fill="#26B1FF"/>
<path d="M26.8606 173.184C26.8606 173.184 20.3537 156.708 5.92578 164.347C5.92578 164.347 14.7611 179.449 26.2198 175.727L26.8606 173.184Z" fill="#26B1FF"/>
<path d="M30.8939 158.5C30.8939 158.5 28.3304 140.437 16.3677 138.82C16.3677 138.82 18.9055 157.869 29.2832 161.756L30.8939 158.5Z" fill="#26B1FF"/>
<path d="M34.1152 144.38C34.1152 144.38 33.1155 122.617 23.2249 121.857C23.2249 121.857 23.5581 138.376 33.0001 147.461L34.1152 144.38Z" fill="#26B1FF"/>
<path d="M41.0536 127.413C41.0536 127.413 38.1056 109.316 28.6636 107.105C28.6636 107.105 29.8342 124.631 40.1179 131.855L41.0536 127.413Z" fill="#26B1FF"/>
<path d="M46.7745 112.904C46.7745 112.904 46.6762 94.0515 40.9085 91.282C40.9085 91.282 37.3325 108.351 45.104 115.311L46.7745 112.904Z" fill="#26B1FF"/>
<path d="M51.5982 98.4423C51.5982 98.4423 50.7907 79.0304 44.8178 76.295C44.8178 76.295 42.7756 91.6573 50.7052 99.714L51.5982 98.4423Z" fill="#26B1FF"/>
<path d="M57.964 81.194C57.964 81.194 57.9298 65.4049 53.6659 61.7009C53.6659 61.7009 49.4277 78.9963 55.738 84.3688L57.964 81.194Z" fill="#26B1FF"/>
<path d="M60.1684 66.2114L56.0199 39.9333C56.0199 39.9333 50.3846 61.4662 60.365 70.9566L60.1684 66.2114Z" fill="#26B1FF"/>
<path d="M60.976 40.0914C60.976 40.0914 50.3291 22.4248 50.547 20.4618C50.547 20.4618 51.6792 38.9776 65.0732 48.1993L60.976 40.0914Z" fill="#26B1FF"/>
<path d="M62.2235 34.8725C62.2235 34.8725 52.1748 9.78075 47.6289 7.74951C47.6289 7.74951 61.9842 15.0381 63.0609 34.1556L62.2235 34.8725Z" fill="#26B1FF"/>
<path d="M56.6481 83.6477L55.9602 83.4386C64.441 55.8164 66.5558 38.2052 61.9202 33.7886L62.4116 33.2679C67.3291 37.9278 65.3339 55.347 56.6481 83.6477Z" fill="#444053"/>
<path d="M33.2949 148.323L32.2781 147.96C33.1796 145.43 34.1494 142.861 35.1662 140.33C44.0187 118.294 51.5552 97.7938 56.3873 82.056L57.2717 81.6293C52.4311 97.397 45.027 118.682 36.166 140.748C35.1534 143.232 34.1878 145.788 33.2949 148.323Z" fill="#444053"/>
<path d="M54.6911 300.358C54.5544 300.209 40.81 284.749 31.227 258.355C25.6119 242.903 22.487 226.659 21.9687 210.229C21.3107 189.69 25.6259 166.758 33.0171 145.925L33.8204 146.863C17.2263 193.62 23.8186 233.686 32.5643 257.813C42.0448 283.968 55.6353 299.257 55.7678 299.411L54.6911 300.358Z" fill="#444053"/>
<path d="M269.474 267.534C269.474 267.534 259.789 279.342 267.479 297.192L190.148 330.69L182.727 332.244L179.309 317.308L181.595 298.459V288.158L269.474 267.534Z" fill="#D5D6DB"/>
<path d="M25.2756 259.904L132.308 240.416L274.131 262.981L186.042 294.657L25.2756 259.904Z" fill="#26B1FF"/>
<path d="M25.2756 259.904L132.308 240.416L274.131 262.981L186.042 294.657L25.2756 259.904Z" fill="#26B1FF"/>
<path d="M25.2757 259.9C25.2757 259.9 15.2654 278.843 26.8009 296.339L185.521 330.69C185.521 330.69 175.669 315.601 186.03 294.657L25.2757 259.9Z" fill="#26B1FF"/>
<path opacity="0.1" d="M25.2757 259.9C25.2757 259.9 15.2654 278.843 26.8009 296.339L185.521 330.69C185.521 330.69 175.669 315.601 186.03 294.657L25.2757 259.9Z" fill="black"/>
<path opacity="0.1" d="M30.0052 266.468C30.0052 266.468 24.2844 280.328 30.0052 289.298V266.468Z" fill="black"/>
<path d="M185.521 330.69L274.131 292.925C274.131 292.925 279.087 293.992 275.883 297.619C272.678 301.246 187.23 334.318 187.23 334.318L26.8008 296.339L185.521 330.69Z" fill="#26B1FF"/>
<path opacity="0.1" d="M185.521 330.69L274.131 292.925C274.131 292.925 279.087 293.992 275.883 297.619C272.678 301.246 187.23 334.318 187.23 334.318L26.8008 296.339L185.521 330.69Z" fill="black"/>
<path opacity="0.1" d="M178.258 298.472C178.258 298.472 169.713 308.714 178.258 324.076V298.472Z" fill="black"/>
<path opacity="0.1" d="M219.627 298.299L181.299 311.071L181.435 311.476L219.762 298.704L219.627 298.299Z" fill="black"/>
<path opacity="0.1" d="M227.303 297.028L181.287 314.506L181.439 314.904L227.455 297.427L227.303 297.028Z" fill="black"/>
<path opacity="0.1" d="M234.354 296.967L181.544 318.557L181.706 318.952L234.516 297.362L234.354 296.967Z" fill="black"/>
<path opacity="0.1" d="M242.02 295.118L182.16 322.126L182.336 322.515L242.196 295.507L242.02 295.118Z" fill="black"/>
<path opacity="0.1" d="M248.461 295.127L182.634 323.865L182.805 324.256L248.633 295.518L248.461 295.127Z" fill="black"/>
<path opacity="0.1" d="M262.55 292.737L183.627 326.784L183.796 327.176L262.719 293.129L262.55 292.737Z" fill="black"/>
<path opacity="0.3" d="M65.0391 261.987L140.234 246.198L186.042 254.946L124.426 274.789L65.0391 261.987Z" fill="white"/>
<path d="M274.131 262.981C274.131 262.981 278.019 264.547 275.738 266.967C273.456 269.386 186.03 294.657 186.03 294.657L274.131 262.981Z" fill="#26B1FF"/>
<path d="M311.895 226.491C311.895 226.491 302.214 238.295 309.904 256.149L232.573 289.647L225.152 291.209L221.734 276.274L224.054 257.429V247.115L311.895 226.491Z" fill="#D5D6DB"/>
<path d="M67.7007 218.857L174.729 199.373L316.556 221.938L228.467 253.614L67.7007 218.857Z" fill="#3A3768"/>
<path d="M67.6837 218.857C67.6837 218.857 57.6691 237.8 69.2046 255.296L227.925 289.647C227.925 289.647 218.077 274.545 228.45 253.61L67.6837 218.857Z" fill="#3A3768"/>
<path opacity="0.1" d="M67.6837 218.857C67.6837 218.857 57.6691 237.8 69.2046 255.296L227.925 289.647C227.925 289.647 218.077 274.545 228.45 253.61L178.258 242.758L67.6837 218.857Z" fill="black"/>
<path opacity="0.1" d="M72.4262 225.425C72.4262 225.425 66.7097 239.281 72.4262 248.255V225.425Z" fill="black"/>
<path d="M227.942 289.647L316.556 251.882C316.556 251.882 321.508 252.949 318.304 256.576C315.099 260.203 229.651 293.275 229.651 293.275L69.2217 255.296L227.942 289.647Z" fill="#3A3768"/>
<path opacity="0.1" d="M227.942 289.647L316.556 251.882C316.556 251.882 321.508 252.949 318.304 256.576C315.099 260.203 229.651 293.275 229.651 293.275L69.2217 255.296L227.942 289.647Z" fill="black"/>
<path opacity="0.1" d="M220.679 257.429C220.679 257.429 212.134 267.671 220.679 283.033V257.429Z" fill="black"/>
<path opacity="0.1" d="M262.051 257.261L223.723 270.032L223.859 270.437L262.186 257.666L262.051 257.261Z" fill="black"/>
<path opacity="0.1" d="M269.733 255.988L223.717 273.465L223.868 273.864L269.885 256.387L269.733 255.988Z" fill="black"/>
<path opacity="0.1" d="M276.777 255.921L223.967 277.51L224.129 277.905L276.939 256.315L276.777 255.921Z" fill="black"/>
<path opacity="0.1" d="M284.448 254.073L224.588 281.081L224.764 281.469L284.624 254.461L284.448 254.073Z" fill="black"/>
<path opacity="0.1" d="M290.884 254.076L225.056 282.814L225.228 283.205L291.055 254.467L290.884 254.076Z" fill="black"/>
<path opacity="0.1" d="M304.975 251.686L226.052 285.733L226.222 286.125L305.144 252.078L304.975 251.686Z" fill="black"/>
<path opacity="0.45" d="M107.464 220.944L182.659 205.155L228.468 213.903L166.851 233.746L107.464 220.944Z" fill="white"/>
<path d="M316.556 221.938C316.556 221.938 320.44 223.504 318.163 225.92C315.885 228.335 228.468 253.61 228.468 253.61L316.556 221.938Z" fill="#3A3768"/>
<path d="M315.911 179.538C315.911 179.538 306.226 200.734 313.916 218.584L236.585 242.694L229.181 244.26L225.763 229.325L228.049 210.476V200.162L315.911 179.538Z" fill="#D5D6DB"/>
<path d="M71.7297 171.908L178.762 152.42L320.59 174.985L232.497 206.661L71.7297 171.908Z" fill="#26B1FF"/>
<path d="M71.7297 171.904C71.7297 171.904 61.7023 190.846 73.2379 208.342L231.958 242.694C231.958 242.694 222.106 227.592 232.479 206.661L71.7297 171.904Z" fill="#26B1FF"/>
<path opacity="0.1" d="M71.7297 171.904C71.7297 171.904 61.7023 190.846 73.2379 208.342L231.958 242.694C231.958 242.694 222.106 227.592 232.479 206.661L71.7297 171.904Z" fill="black"/>
<path opacity="0.1" d="M76.4593 178.471C76.4593 178.471 70.7385 192.332 76.4593 201.302V178.471Z" fill="black"/>
<path d="M231.975 242.694L320.585 214.317C320.585 214.317 325.541 215.384 322.337 219.011C319.133 222.638 233.684 246.322 233.684 246.322L73.2549 208.343L231.975 242.694Z" fill="#26B1FF"/>
<path opacity="0.1" d="M231.975 242.694L320.585 214.317C320.585 214.317 325.541 215.384 322.337 219.011C319.133 222.638 233.684 246.322 233.684 246.322L73.2549 208.343L231.975 242.694Z" fill="black"/>
<path opacity="0.1" d="M224.712 210.476C224.712 210.476 216.167 220.718 224.712 236.08V210.476Z" fill="black"/>
<path opacity="0.1" d="M266.085 210.307L227.758 223.078L227.893 223.483L266.221 210.711L266.085 210.307Z" fill="black"/>
<path opacity="0.1" d="M273.764 209.036L227.748 226.513L227.9 226.912L273.916 209.435L273.764 209.036Z" fill="black"/>
<path opacity="0.1" d="M280.804 208.971L227.995 230.561L228.156 230.956L280.966 209.366L280.804 208.971Z" fill="black"/>
<path opacity="0.1" d="M288.482 207.119L228.622 234.127L228.798 234.516L288.658 207.508L288.482 207.119Z" fill="black"/>
<path opacity="0.1" d="M294.919 207.127L229.092 235.865L229.263 236.256L295.09 207.518L294.919 207.127Z" fill="black"/>
<path opacity="0.1" d="M309.009 204.74L230.086 238.786L230.256 239.178L309.179 205.131L309.009 204.74Z" fill="black"/>
<path opacity="0.3" d="M111.493 173.991L186.687 158.202L232.496 166.95L170.88 186.793L111.493 173.991Z" fill="white"/>
<path d="M320.585 174.985C320.585 174.985 324.473 176.551 322.192 178.971C319.91 181.39 232.497 206.661 232.497 206.661L320.585 174.985Z" fill="#26B1FF"/>
<path d="M132.624 45.4468C132.624 45.4468 116.389 44.4696 118.286 55.8462C118.286 55.8462 117.906 57.8561 119.73 58.7693C119.73 58.7693 119.76 57.9158 121.396 58.2103C121.98 58.3105 122.574 58.3391 123.165 58.2956C123.962 58.2412 124.719 57.9297 125.323 57.408C125.323 57.408 129.89 55.5219 131.667 48.0626C131.667 48.0626 132.983 46.4368 132.949 46.0186L130.198 47.1878C130.198 47.1878 131.133 49.1636 130.398 50.8065C130.398 50.8065 130.309 47.2604 129.779 47.3415C129.672 47.3415 128.356 48.0285 128.356 48.0285C128.356 48.0285 129.967 51.4722 128.749 53.9729C128.749 53.9729 129.211 49.7312 127.852 48.276L125.921 49.4026C125.921 49.4026 127.805 52.9572 126.528 55.859C126.528 55.859 126.856 51.4082 125.515 49.6757L123.763 51.0412C123.763 51.0412 125.536 54.5447 124.455 56.9514C124.455 56.9514 124.314 51.7709 123.387 51.3783C123.387 51.3783 121.853 52.7268 121.623 53.2816C121.623 53.2816 122.836 55.8419 122.08 57.1691C122.08 57.1691 121.623 53.7168 121.225 53.6997C121.225 53.6997 119.7 55.987 119.542 57.5403C119.616 56.0922 120.068 54.6887 120.854 53.4693C119.975 53.6354 119.164 54.0553 118.521 54.677C118.521 54.677 118.756 53.0596 121.234 52.9188C121.234 52.9188 122.494 51.182 122.832 51.0796C122.832 51.0796 120.367 50.8705 118.876 51.532C118.876 51.532 120.192 50.0085 123.28 50.6785L124.989 49.2703C124.989 49.2703 121.751 48.8436 120.375 49.3172C120.375 49.3172 121.96 47.9688 125.455 48.9502L127.339 47.8279C127.339 47.8279 124.575 47.2348 122.93 47.4482C122.93 47.4482 124.665 46.5136 127.89 47.525L129.232 46.9233C129.232 46.9233 127.211 46.5264 126.617 46.4624C126.023 46.3984 125.993 46.2362 125.993 46.2362C127.276 46.0258 128.592 46.1735 129.796 46.663C129.796 46.663 132.68 45.626 132.624 45.4468Z" fill="#26B1FF"/>
<path opacity="0.1" d="M361.028 92.2079C361.028 92.2079 344.793 91.2307 346.69 102.607C346.69 102.607 346.309 104.617 348.134 105.53C348.134 105.53 348.164 104.677 349.8 104.971C350.384 105.069 350.978 105.098 351.569 105.057C352.358 104.999 353.107 104.687 353.705 104.169C353.705 104.169 358.276 102.283 360.049 94.8238C360.049 94.8238 361.365 93.1979 361.331 92.7797L358.588 93.9489C358.588 93.9489 359.524 95.9247 358.789 97.5676C358.789 97.5676 358.699 94.0215 358.174 94.1026C358.067 94.1026 356.747 94.7896 356.747 94.7896C356.747 94.7896 358.358 98.2333 357.144 100.734C357.144 100.734 357.606 96.4923 356.243 95.0371L354.312 96.1637C354.312 96.1637 356.196 99.7183 354.918 102.62C354.918 102.62 355.247 98.1693 353.906 96.4368L352.158 97.8023C352.158 97.8023 353.927 101.306 352.846 103.713C352.846 103.713 352.705 98.532 351.778 98.1394C351.778 98.1394 350.249 99.4879 350.014 100.043C350.014 100.043 351.227 102.603 350.475 103.93C350.475 103.93 350.014 100.478 349.62 100.461C349.62 100.461 348.095 102.748 347.937 104.301C348.011 102.853 348.465 101.449 349.253 100.23C348.373 100.397 347.561 100.817 346.916 101.438C346.916 101.438 347.155 99.8208 349.629 99.6799C349.629 99.6799 350.889 97.9432 351.227 97.8365C351.227 97.8365 348.766 97.6316 347.271 98.2931C347.271 98.2931 348.587 96.7696 351.676 97.4396L353.384 96.0314C353.384 96.0314 350.142 95.6047 348.77 96.0783C348.77 96.0783 350.351 94.7299 353.85 95.7113L355.73 94.589C355.73 94.589 352.966 93.9959 351.321 94.2093C351.321 94.2093 353.055 93.2747 356.281 94.2861L357.627 93.6844C357.627 93.6844 355.602 93.2875 355.008 93.2235C354.414 93.1595 354.384 92.9973 354.384 92.9973C355.667 92.7842 356.983 92.932 358.187 93.4241C358.187 93.4241 361.079 92.3871 361.028 92.2079Z" fill="#26B1FF"/>
<path opacity="0.1" d="M159.968 115.729C159.968 115.729 152.893 101.08 143.886 108.3C143.886 108.3 141.943 108.949 142.037 110.984C142.037 110.984 142.784 110.596 143.318 112.166C143.518 112.721 143.782 113.251 144.104 113.745C144.541 114.415 145.185 114.924 145.937 115.196C145.937 115.196 149.812 118.26 157.199 116.169C157.199 116.169 159.263 116.523 159.6 116.276L157.242 114.453C157.242 114.453 155.96 116.233 154.174 116.391C154.174 116.391 157.233 114.586 156.905 114.168C156.836 114.082 155.623 113.259 155.623 113.259C155.623 113.259 153.397 116.344 150.62 116.502C150.62 116.502 154.55 114.837 155.157 112.939L153.235 111.803C153.235 111.803 151.043 115.183 147.885 115.482C147.885 115.482 151.936 113.6 152.794 111.586L150.752 110.732C150.752 110.732 148.552 113.984 145.92 114.219C145.92 114.219 150.381 111.569 150.269 110.566C150.269 110.566 148.343 109.892 147.744 109.956C147.744 109.956 146.112 112.256 144.574 112.256C144.574 112.256 147.364 110.169 147.193 109.832C147.193 109.832 144.45 109.619 143.006 110.259C144.308 109.613 145.756 109.318 147.206 109.405C146.631 108.72 145.867 108.217 145.01 107.959C145.01 107.959 146.54 107.378 147.868 109.465C147.868 109.465 150.005 109.717 150.257 109.96C150.257 109.96 149.236 107.715 147.932 106.738C147.932 106.738 149.906 107.135 150.808 110.152L152.88 110.971C152.88 110.971 151.688 107.933 150.59 106.973C150.59 106.973 152.538 107.694 153.388 111.24L155.285 112.333C155.285 112.333 154.461 109.631 153.47 108.304C153.47 108.304 155.131 109.363 155.819 112.665L157.003 113.544C157.003 113.544 156.362 111.586 156.148 111.04C155.935 110.493 156.041 110.382 156.041 110.382C156.854 111.396 157.369 112.614 157.528 113.903C157.528 113.903 159.814 115.857 159.968 115.729Z" fill="#26B1FF"/>
<path opacity="0.1" d="M323.935 71.5114C323.935 71.5114 316.864 56.8618 307.853 64.0821C307.853 64.0821 305.914 64.7307 306.004 66.7662C306.004 66.7662 306.755 66.3821 307.285 67.9482C307.484 68.5056 307.75 69.0372 308.076 69.5314C308.511 70.1996 309.153 70.7076 309.904 70.978C309.904 70.978 313.784 74.042 321.166 71.9552C321.166 71.9552 323.23 72.3052 323.572 72.0577L321.226 70.2313C321.226 70.2313 319.944 72.015 318.163 72.1729C318.163 72.1729 321.218 70.3635 320.889 69.9453C320.82 69.86 319.607 69.0364 319.607 69.0364C319.607 69.0364 317.385 72.1217 314.604 72.2796C314.604 72.2796 318.539 70.6153 319.145 68.7206L317.193 67.5941C317.193 67.5941 315.005 70.9695 311.844 71.2725C311.844 71.2725 315.894 69.3863 316.757 67.3722L314.711 66.5187C314.711 66.5187 312.51 69.7747 309.883 70.0051C309.883 70.0051 314.339 67.3551 314.228 66.3565C314.228 66.3565 312.305 65.678 311.707 65.7463C311.707 65.7463 310.075 68.0421 308.533 68.0421C308.533 68.0421 311.327 65.9554 311.156 65.6183C311.156 65.6183 308.413 65.4049 306.965 66.045C308.266 65.3988 309.714 65.1046 311.165 65.1916C310.591 64.5058 309.829 64.0028 308.973 63.745C308.973 63.745 310.502 63.1646 311.831 65.2513C311.831 65.2513 313.967 65.5074 314.219 65.7506C314.219 65.7506 313.198 63.5017 311.891 62.5245C311.891 62.5245 313.865 62.9256 314.766 65.9597L316.843 66.779C316.843 66.779 315.651 63.7364 314.553 62.7763C314.553 62.7763 316.501 63.4975 317.347 67.0436L319.248 68.136C319.248 68.136 318.419 65.4391 317.428 64.1077C317.428 64.1077 319.094 65.166 319.778 68.4689L320.961 69.3479C320.961 69.3479 320.325 67.3892 320.107 66.843C319.889 66.2968 320 66.1901 320 66.1901C320.81 67.2042 321.324 68.4228 321.482 69.7106C321.482 69.7106 323.802 71.648 323.935 71.5114Z" fill="#26B1FF"/>
<path opacity="0.1" d="M346.532 143.975C346.532 143.975 339.461 129.321 330.437 136.541C330.437 136.541 328.498 137.189 328.587 139.225C328.587 139.225 329.339 138.841 329.869 140.407C330.067 140.964 330.331 141.496 330.655 141.99C331.091 142.658 331.733 143.166 332.484 143.437C332.484 143.437 336.363 146.505 343.75 144.414C343.75 144.414 345.81 144.768 346.151 144.516L343.793 142.694C343.793 142.694 342.511 144.478 340.725 144.636C340.725 144.636 343.78 142.827 343.451 142.408C343.383 142.323 342.17 141.499 342.17 141.499C342.17 141.499 339.948 144.585 337.167 144.747C337.167 144.747 341.101 143.078 341.708 141.184L339.781 140.049C339.781 140.049 337.594 143.428 334.432 143.727C334.432 143.727 338.482 141.841 339.345 139.827L337.299 138.973C337.299 138.973 335.099 142.225 332.471 142.46C332.471 142.46 336.932 139.81 336.82 138.807C336.82 138.807 334.894 138.128 334.295 138.197C334.295 138.197 332.663 140.492 331.121 140.492C331.121 140.492 333.915 138.406 333.744 138.069C333.744 138.069 331.001 137.855 329.553 138.495C330.856 137.85 332.305 137.555 333.757 137.642C333.183 136.955 332.419 136.452 331.561 136.195C331.561 136.195 333.091 135.611 334.419 137.702C334.419 137.702 336.556 137.953 336.808 138.197C336.808 138.197 335.787 135.952 334.483 134.97C334.483 134.97 336.457 135.372 337.359 138.406L339.431 139.225C339.431 139.225 338.239 136.182 337.141 135.227C337.141 135.227 339.089 135.943 339.935 139.494L341.836 140.582C341.836 140.582 341.007 137.885 340.016 136.554C340.016 136.554 341.683 137.612 342.37 140.919L343.554 141.773C343.554 141.773 342.913 139.814 342.699 139.268C342.486 138.721 342.593 138.615 342.593 138.615C343.405 139.628 343.918 140.847 344.075 142.135C344.075 142.135 346.399 144.103 346.532 143.975Z" fill="#26B1FF"/>
<path opacity="0.1" d="M86.2815 334.625C91.7062 334.625 96.1038 334.134 96.1038 333.528C96.1038 332.922 91.7062 332.431 86.2815 332.431C80.8568 332.431 76.4592 332.922 76.4592 333.528C76.4592 334.134 80.8568 334.625 86.2815 334.625Z" fill="#26B1FF"/>
<path opacity="0.1" d="M21.8919 315.985C27.3166 315.985 31.7142 315.494 31.7142 314.889C31.7142 314.283 27.3166 313.792 21.8919 313.792C16.4672 313.792 12.0696 314.283 12.0696 314.889C12.0696 315.494 16.4672 315.985 21.8919 315.985Z" fill="#26B1FF"/>
<path opacity="0.1" d="M135.363 347.004C140.788 347.004 145.185 346.513 145.185 345.908C145.185 345.302 140.788 344.811 135.363 344.811C129.938 344.811 125.541 345.302 125.541 345.908C125.541 346.513 129.938 347.004 135.363 347.004Z" fill="#26B1FF"/>
<path opacity="0.1" d="M386.88 320.039C392.305 320.039 396.702 319.548 396.702 318.942C396.702 318.337 392.305 317.846 386.88 317.846C381.455 317.846 377.058 318.337 377.058 318.942C377.058 319.548 381.455 320.039 386.88 320.039Z" fill="#26B1FF"/>
<path opacity="0.1" d="M305.145 314.718C310.569 314.718 314.967 314.227 314.967 313.621C314.967 313.015 310.569 312.524 305.145 312.524C299.72 312.524 295.322 313.015 295.322 313.621C295.322 314.227 299.72 314.718 305.145 314.718Z" fill="#26B1FF"/>
<path opacity="0.1" d="M252.269 340.672C258.685 340.672 263.886 339.779 263.886 338.679C263.886 337.578 258.685 336.686 252.269 336.686C245.854 336.686 240.653 337.578 240.653 338.679C240.653 339.779 245.854 340.672 252.269 340.672Z" fill="#26B1FF"/>
<path d="M257.452 318.648C257.452 318.648 241.276 326.995 249.633 336.827C249.633 336.827 250.419 338.96 252.692 338.811C252.692 338.811 252.239 337.983 253.974 337.322C254.591 337.083 255.178 336.773 255.721 336.396C256.456 335.889 257.005 335.156 257.285 334.309C257.285 334.309 260.592 329.888 258.028 321.708C258.028 321.708 258.362 319.395 258.071 319.019L256.106 321.712C256.106 321.712 258.135 323.073 258.37 325.075C258.37 325.075 256.234 321.716 255.807 322.088C255.713 322.164 254.833 323.56 254.833 323.56C254.833 323.56 258.353 325.945 258.614 329.043C258.614 329.043 256.631 324.703 254.491 324.085L253.265 326.269C253.265 326.269 257.11 328.608 257.537 332.124C257.537 332.124 255.303 327.665 253.021 326.764L252.12 329.073C252.12 329.073 255.828 331.429 256.17 334.356C256.17 334.356 253.068 329.461 251.953 329.615C251.953 329.615 251.252 331.783 251.346 332.453C251.346 332.453 253.965 334.202 254.012 335.922C254.012 335.922 251.594 332.871 251.222 333.072C251.222 333.072 251.069 336.14 251.812 337.736C251.812 337.736 250.53 335.457 250.74 333.072C249.99 333.733 249.451 334.6 249.189 335.564C249.189 335.564 248.492 333.878 250.787 332.325C250.787 332.325 251.005 329.939 251.269 329.645C251.269 329.645 248.787 330.857 247.732 332.342C247.732 332.342 248.121 330.127 251.487 329.026L252.342 326.688C252.342 326.688 248.975 328.113 247.937 329.368C247.937 329.368 248.685 327.17 252.607 326.116L253.769 323.982C253.769 323.982 250.778 324.989 249.317 326.116C249.317 326.116 250.449 324.225 254.128 323.355L255.072 322.011C255.072 322.011 252.902 322.783 252.295 323.06C251.688 323.338 251.569 323.201 251.569 323.201C252.677 322.264 254.025 321.653 255.461 321.435C255.461 321.435 257.601 318.793 257.452 318.648Z" fill="#26B1FF"/>
<path d="M305.461 161.001C302.667 153.418 287.286 152.705 280.612 154.638C275.87 156.017 265.873 157.57 260.532 158.351L260.186 158.022C260.878 157.818 260.895 157.314 260.81 156.567C260.76 155.583 260.774 154.597 260.853 153.614C264.125 154.63 267.039 152.227 267.039 152.227C270.884 150.521 269.85 143.215 270.585 141.218C271.136 139.724 271.73 130.925 271.995 126.538H272.051L272.08 125.066C272.119 124.43 272.136 124.059 272.136 124.059C272.136 124.059 272.512 113.331 273.247 111.159C273.93 109.162 274.486 99.0995 274.571 97.5036C274.571 97.367 274.571 97.2945 274.571 97.2945L274.516 96.3642C274.554 95.6857 274.571 94.9304 274.567 94.1367C274.567 90.4881 274.187 85.8922 274.14 85.1497C274.14 85.043 274.14 84.915 274.14 84.7614C274.17 83.2038 273.973 75.4032 267.329 72.4545C264.881 71.3621 261.938 70.0605 259.088 68.7931C258.353 62.4562 256.674 56.1534 256.819 49.7695C256.819 48.8094 256.905 47.8492 256.999 46.8933C256.999 47.1707 256.969 47.4524 256.965 47.7468C256.965 48.3656 256.965 48.9886 256.965 49.6074C257.217 41.6232 260.237 33.5964 259.955 25.783C259.93 26.5468 259.874 27.315 259.801 28.0831C259.949 25.4403 259.672 22.7909 258.981 20.2355C258.725 19.3351 258.379 18.4048 257.64 17.8031C256.941 17.3186 256.14 17.0017 255.298 16.8771C253.277 16.3603 251.223 15.9782 249.15 15.7335C248.835 14.7707 248.368 13.8645 247.766 13.0494C243.434 7.10928 237.017 1.52765 229.429 0.247462C225.622 -0.392634 221.243 0.140779 218.654 2.85905C218.383 3.09784 218.129 3.35446 217.893 3.62716C216.501 5.28715 215.902 7.46774 214.475 9.12345C214.381 9.2344 214.275 9.33682 214.172 9.4435C211.378 11.9399 207.024 12.4605 203.918 14.7008C203.371 15.103 202.858 15.5497 202.384 16.0365C201.133 17.2752 200.011 18.6378 199.035 20.1032C197.638 22.0662 196.202 24.1102 195.758 26.453C194.865 31.147 198.065 35.5978 198.659 40.3217C199.983 50.8918 188.273 60.2713 190.49 70.7006C191.082 73.2628 192.388 75.605 194.258 77.4558C189.691 81.5865 185.803 85.5935 185.803 85.5935V85.8325H185.081L185.154 86.6859H185.081L185.479 91.316L185.081 98.0583C185.081 98.0583 185.081 98.1309 185.081 98.2674V98.3015V98.485C185.081 98.485 185.081 98.5576 185.081 98.6941H185.107C185.239 101.165 185.765 110.049 186.389 111.923C187.123 114.095 187.495 124.823 187.495 124.823C187.495 124.823 188.307 139.985 189.05 141.99C189.794 143.996 188.738 151.28 192.596 153C193.725 153.865 195.061 154.418 196.471 154.604C196.275 156.2 196.399 157.357 197.035 157.719C197.308 157.879 197.617 157.968 197.933 157.975C197.671 158.363 197.438 158.77 197.236 159.192C195.705 159.032 194.2 158.678 192.759 158.138C188.614 156.431 174.862 152.59 170.867 155.291C166.872 157.993 157.259 160.442 161.698 171.315C166.137 182.188 168.205 182.461 168.205 182.461C169.572 183.452 170.77 184.655 171.755 186.024C173.088 188.026 185.508 192.605 188.614 192.605C189.935 192.584 191.255 192.65 192.566 192.801C192.566 192.801 189.196 195.754 189.644 197.469C190.093 199.185 188.619 212.917 188.619 212.917C188.619 212.917 192.037 216.356 193.498 211.846L193.549 211.914C193.823 212.285 195.301 213.963 198.082 211.846C199.22 210.983 200.43 210.218 201.697 209.559L215.163 207.655C216.567 207.568 217.975 207.558 219.38 207.626C221.516 207.801 223.614 206.537 224.934 205.56C227.724 206.618 230.86 207.775 232.351 208.197C235.376 209.051 249.279 212.776 252.53 211.611C253.206 211.343 253.807 210.915 254.282 210.365L257.383 210.463L255.931 210.753C255.931 210.753 258.759 210.8 262.604 210.852L262.442 210.946L267.265 210.903C274.323 210.967 282.253 210.988 283.296 210.753C284.928 210.391 293.408 210.647 295.908 210.753H296.604C296.604 210.753 305.922 208.897 302.077 199.454C299.121 192.199 290.033 190.091 286 189.511C287.136 189.285 288.115 189.11 288.764 189.007C291.58 188.581 297.048 186.02 297.493 185.145C297.937 184.271 302.521 181.732 303.705 180.285C304.888 178.838 308.268 168.584 305.461 161.001ZM228.28 182.222L227.822 182.372L227.515 182.474L226.925 183.054C226.455 182.739 225.951 182.406 225.426 182.064C226.353 182.12 227.305 182.175 228.28 182.222Z" fill="url(#paint0_linear)"/>
<path d="M255.521 137.228C255.521 137.228 262.057 154.297 265.774 152.59C269.491 150.883 268.483 143.629 269.192 141.64C269.901 139.652 270.688 124.571 270.688 124.571C270.688 124.571 271.046 113.903 271.756 111.744C272.414 109.759 272.948 99.7524 273.037 98.1778C273.037 98.0412 273.037 97.9687 273.037 97.9687L272.332 85.5935L268.342 84.5992L259.088 88.0131L257.806 95.323L257.306 98.1778L257.093 99.394L255.521 137.228Z" fill="#BE6F72"/>
<path opacity="0.1" d="M257.674 134.369C257.674 134.369 263.912 139.468 265.791 139.916C267.671 140.364 268.825 144.342 268.825 144.342" fill="black"/>
<path d="M204.401 137.975C204.401 137.975 197.864 155.044 194.147 153.337C190.43 151.63 191.438 144.376 190.729 142.387C190.02 140.399 189.234 125.318 189.234 125.318C189.234 125.318 188.875 114.65 188.166 112.49C187.508 110.506 186.974 100.499 186.884 98.9246C186.884 98.7881 186.884 98.7155 186.884 98.7155L187.593 86.3404L191.584 85.3461L200.838 88.7599L202.119 96.0698L202.619 98.9246L202.833 100.141L204.401 137.975Z" fill="#BE6F72"/>
<path d="M246.967 46.6288H232.377V69.3437H246.967V46.6288Z" fill="#3E373A"/>
<path opacity="0.1" d="M246.967 46.6288H232.377V69.3437H246.967V46.6288Z" fill="black"/>
<path d="M201.838 154.976C201.838 154.976 196.852 160.451 198.702 161.445C200.552 162.439 212.519 181.074 212.519 181.074C212.519 181.074 251.825 185.909 259.238 178.655C266.65 171.4 266.501 158.441 266.501 158.441C266.501 158.441 260.545 159.721 259.895 159.025C259.246 158.33 255.679 154.976 255.679 154.976C255.679 154.976 205.256 151.92 201.838 154.976Z" fill="#4B4B5B"/>
<path opacity="0.02" d="M201.838 154.976C201.838 154.976 196.852 160.451 198.702 161.445C200.552 162.439 212.519 181.074 212.519 181.074C212.519 181.074 251.825 185.909 259.238 178.655C266.65 171.4 266.501 158.441 266.501 158.441C266.501 158.441 260.545 159.721 259.895 159.025C259.246 158.33 255.679 154.976 255.679 154.976C255.679 154.976 205.256 151.92 201.838 154.976Z" fill="black"/>
<path d="M272.597 85.7728L259.78 96.0144L255.905 96.296L254.482 96.3984L230.587 98.148L205.807 96.3387L202.119 96.0698L197.42 95.7285L187.593 86.3404C187.593 86.3404 194.549 78.8982 200.641 73.8756C203.042 71.8913 205.311 70.2868 206.964 69.6552L207.246 69.5571C208.286 69.152 209.215 68.5055 209.955 67.6709C214.766 62.7166 219.213 50.4908 219.213 50.4908C219.213 50.4908 240.435 39.5409 237.871 53.9046C235.308 68.2684 247.411 64.718 247.411 64.718L251.402 66.5358L252.978 67.257L256.999 69.0962L266.069 73.2526C273.187 76.5256 272.597 85.7728 272.597 85.7728Z" fill="#BE6F72"/>
<path opacity="0.1" d="M229.591 62.1874C240.132 62.1874 248.676 53.6531 248.676 43.1254C248.676 32.5977 240.132 24.0634 229.591 24.0634C219.051 24.0634 210.506 32.5977 210.506 43.1254C210.506 53.6531 219.051 62.1874 229.591 62.1874Z" fill="black"/>
<path opacity="0.1" d="M272.627 99.3514H186.884C186.884 99.2148 186.884 99.1423 186.884 99.1423L187.593 86.7671C187.593 86.7671 194.549 79.3249 200.641 74.3023L254.474 72.1687L256.977 69.5315L266.048 73.6878C273.17 76.9566 272.597 86.2038 272.597 86.2038C272.597 86.2038 273.571 96.919 272.627 99.3514Z" fill="black"/>
<path d="M272.627 98.9247H186.884C186.884 98.7881 186.884 98.7156 186.884 98.7156L187.593 86.3404C187.593 86.3404 194.549 78.8982 200.641 73.8756L254.474 71.7419L256.977 69.1047L266.048 73.2611C273.17 76.5298 272.597 85.7771 272.597 85.7771C272.597 85.7771 273.571 96.4923 272.627 98.9247Z" fill="#E7C7CA"/>
<path opacity="0.1" d="M215.847 64.2229C215.847 64.2229 229.373 81.4373 247.39 63.8688C265.407 46.3003 249.385 103.055 249.385 103.055L210.506 107.664L215.847 64.2229Z" fill="black"/>
<path d="M215.847 65.0765C215.847 65.0765 229.373 82.2908 247.39 64.7223C265.407 47.1538 249.385 103.909 249.385 103.909L210.506 108.518L215.847 65.0765Z" fill="#E7C7CA"/>
<path opacity="0.1" d="M252.957 68.0977L254.388 89.8993L255.922 97.1537L257.093 102.701C257.093 102.701 260.083 145.374 259.229 147.508C258.374 149.642 259.656 151.348 259.836 152.484C260.015 153.619 259.656 156.469 259.797 157.749C259.938 159.03 259.797 159.597 256.525 159.141C253.252 158.684 248.689 157.89 248.689 157.89C248.689 157.89 237.153 158.744 233.167 157.323C229.181 155.902 221.632 155.897 221.632 155.897C221.632 155.897 210.237 156.183 206.537 155.757C202.837 155.33 200.838 160.31 198.42 158.885C196.001 157.459 201.265 143.667 202.974 139.682C204.683 135.696 200.697 125.6 200.697 125.6L205.824 97.1921L206.964 90.7528V70.5087L207.246 70.4105C208.286 70.0055 209.215 69.3589 209.955 68.5244L211.237 88.8965L251.398 90.3218V67.3936" fill="black"/>
<path d="M252.957 67.2443L254.388 89.0459L255.922 96.3003L257.093 101.848C257.093 101.848 260.083 144.521 259.229 146.655C258.374 148.788 259.656 150.495 259.836 151.63C260.015 152.765 259.656 155.616 259.797 156.896C259.938 158.176 259.797 158.744 256.525 158.287C253.252 157.831 248.689 157.037 248.689 157.037C248.689 157.037 237.153 157.89 233.167 156.469C229.181 155.048 221.632 155.044 221.632 155.044C221.632 155.044 210.237 155.33 206.537 154.903C202.837 154.476 200.838 159.456 198.42 158.031C196.001 156.606 201.265 142.814 202.974 138.828C204.683 134.843 200.697 124.746 200.697 124.746L205.824 96.3387L206.964 89.8994V69.6553L207.246 69.5571C208.286 69.1521 209.215 68.5055 209.955 67.671L211.237 88.0431L251.398 89.4684V66.5402" fill="#E7C7CA"/>
<path opacity="0.1" d="M257.576 21.7462C257.332 20.8543 256.995 19.9283 256.294 19.3309C255.625 18.8511 254.852 18.5353 254.038 18.4092C252.089 17.8973 250.108 17.5181 248.108 17.2741C247.822 16.3265 247.39 15.4295 246.826 14.6155C242.639 8.70959 236.444 3.14076 229.155 1.88191C225.34 1.22047 220.918 1.81363 218.474 4.81781C217.133 6.46926 216.556 8.65838 215.202 10.28C212.591 13.4292 207.879 13.8176 204.589 16.2542C202.833 17.5344 201.56 19.3906 200.317 21.1915C198.971 23.1416 197.586 25.1728 197.159 27.5028C196.305 32.1584 199.385 36.5964 199.953 41.2947C201.235 51.8051 189.956 61.1291 192.088 71.4987C193.331 77.5454 198.924 81.8042 204.709 83.9635C206.747 84.7273 209.075 85.4869 210.028 87.4413C210.455 88.2948 210.528 89.2805 210.929 90.1425C212.279 93.0187 216.718 93.1296 219.102 91.0344C221.486 88.9391 222.238 85.5509 222.52 82.3888C223.665 68.5798 218.128 54.9373 218.773 41.0941C218.966 36.9079 220.145 32.1584 223.9 30.2637C228.955 27.7034 235.034 31.9707 240.597 31.1556C243.229 37.5529 243.788 44.6133 242.195 51.3442C241.31 55.0269 239.781 58.5986 239.67 62.3965C239.503 68.1787 242.626 73.4616 245.326 78.5739C245.906 79.5298 246.293 80.5894 246.467 81.6933C246.51 82.8133 246.301 83.9287 245.856 84.9577C244.331 89.0586 241.699 92.8651 241.4 97.2305C241.313 97.7401 241.427 98.2637 241.721 98.6899C242.022 98.9744 242.41 99.1488 242.823 99.1849C247.437 99.9744 251.428 95.8906 253.679 91.7897C256.189 87.2603 257.652 82.2269 257.96 77.059C258.426 68.3707 255.307 59.8233 255.499 51.1266C255.721 41.2392 260.195 31.2836 257.576 21.7462Z" fill="black"/>
<path d="M258.003 21.3194C257.759 20.4276 257.422 19.5016 256.721 18.9042C256.052 18.4243 255.279 18.1085 254.465 17.9824C252.516 17.4706 250.535 17.0914 248.535 16.8473C248.249 15.8998 247.817 15.0027 247.253 14.1888C243.066 8.28283 236.871 2.714 229.583 1.45515C225.767 0.793717 221.345 1.38687 218.902 4.39105C217.56 6.0425 216.983 8.23163 215.629 9.8532C213.018 13.0025 208.306 13.3908 205.016 15.8274C203.26 17.1076 201.987 18.9639 200.744 20.7647C199.398 22.7149 198.014 24.7461 197.586 27.076C196.732 31.7317 199.812 36.1697 200.381 40.868C201.662 51.3783 190.383 60.7024 192.515 71.0719C193.758 77.1187 199.351 81.3775 205.136 83.5367C207.174 84.3006 209.502 85.0601 210.455 87.0146C210.882 87.868 210.955 88.8538 211.356 89.7158C212.707 92.5919 217.146 92.7029 219.53 90.6076C221.914 88.5124 222.666 85.1242 222.948 81.9621C224.093 68.1531 218.556 54.5105 219.201 40.6674C219.393 36.4812 220.572 31.7317 224.328 29.837C229.382 27.2766 235.461 31.5439 241.024 30.7288C243.656 37.1261 244.215 44.1865 242.622 50.9175C241.738 54.6001 240.208 58.1719 240.097 61.9698C239.93 67.752 243.054 73.0349 245.754 78.1471C246.333 79.1031 246.721 80.1626 246.894 81.2665C246.937 82.3866 246.728 83.5019 246.284 84.531C244.758 88.6319 242.126 92.4383 241.827 96.8038C241.74 97.3133 241.855 97.837 242.148 98.2632C242.449 98.5476 242.837 98.7221 243.25 98.7582C247.864 99.5476 251.855 95.4638 254.106 91.3629C256.617 86.8336 258.079 81.8001 258.387 76.6322C258.853 67.944 255.734 59.3966 255.926 50.6998C256.148 40.8125 260.622 30.8569 258.003 21.3194Z" fill="#3E373A"/>
<path d="M248.565 210.263L265.514 210.805L263.083 198.25L250.099 199.483L248.565 210.263Z" fill="#C3C7D9"/>
<path d="M301.082 180.507C299.941 181.928 295.527 184.488 295.1 185.342C294.673 186.195 289.405 188.756 286.696 189.182C283.988 189.609 275.447 191.461 273.879 192.455C272.755 193.172 263.736 195.442 257.811 196.701C256.205 197.081 254.581 197.373 252.944 197.576C250.381 197.717 222.328 188.188 222.328 188.188L227.737 182.641L228.036 182.538C229.566 182.022 236.632 179.636 240.554 178.501C244.972 177.221 250.099 171.959 250.099 171.959C250.099 171.959 257.644 169.399 258.644 169.113C259.643 168.827 256.08 159.158 256.08 159.158C256.08 159.158 272.456 156.887 278.865 154.963C285.274 153.038 300.086 153.751 302.791 161.291C305.495 168.832 302.239 179.086 301.082 180.507Z" fill="#4B4B5B"/>
<path d="M226.455 204.545C226.455 204.545 223.182 207.959 219.906 207.677C216.629 207.395 205.17 208.53 205.17 208.53C203.093 209.358 201.149 210.483 199.398 211.872C196.719 213.98 195.296 212.298 195.032 211.94L194.985 211.872C193.558 216.357 190.285 212.938 190.285 212.938C190.285 212.938 191.708 199.283 191.272 197.576C190.836 195.869 194.087 192.938 194.087 192.938L197.933 191.96L207.674 189.468L221.632 194.303L226.455 204.545Z" fill="#E7C7CA"/>
<path opacity="0.1" d="M197.915 191.96L195.032 211.94L194.985 211.872C193.558 216.356 190.285 212.938 190.285 212.938C190.285 212.938 191.708 199.283 191.272 197.576C190.836 195.869 194.087 192.938 194.087 192.938L197.915 191.96Z" fill="black"/>
<path opacity="0.1" d="M218.073 135.128C218.073 135.128 225.618 137.689 232.172 135.128H218.073Z" fill="black"/>
<path opacity="0.1" d="M243.831 139.968C243.831 139.968 246.963 141.529 249.385 139.968H243.831Z" fill="black"/>
<path opacity="0.1" d="M243.831 143.671C243.831 143.671 249.099 144.376 250.099 142.955L243.831 143.671Z" fill="black"/>
<path opacity="0.1" d="M242.122 151.63C242.122 151.63 252.017 150.35 254.474 148.643L242.122 151.63Z" fill="black"/>
<path opacity="0.1" d="M211.929 148.643C211.929 148.643 217.483 151.771 221.615 151.63L211.929 148.643Z" fill="black"/>
<path opacity="0.1" d="M257.806 196.701C256.201 197.081 254.577 197.373 252.94 197.576C250.376 197.717 222.324 188.188 222.324 188.188L227.733 182.641L228.032 182.538C228.886 183.14 229.587 183.656 230.087 184.049C232.441 185.901 234.714 183.481 235.568 183.481C236.423 183.481 243.827 189.596 243.827 189.596C243.827 189.596 250.663 191.162 251.803 192.583C252.944 194.004 256.93 193.723 257.64 194.717C257.853 195.024 257.879 195.78 257.806 196.701Z" fill="black"/>
<path d="M205.17 159.738C205.17 159.738 198.257 160.135 194.271 158.458C190.285 156.781 177.04 152.91 173.195 155.629C169.35 158.347 160.092 160.749 164.364 171.563C168.637 182.376 170.632 182.658 170.632 182.658C171.954 183.648 173.108 184.844 174.05 186.199C175.331 188.192 187.294 192.741 190.285 192.741C193.276 192.741 198.543 192.741 205.948 197.862C213.352 202.983 220.047 203.555 220.047 203.555C220.047 203.555 229.446 207.395 232.372 208.249C235.299 209.102 248.672 212.798 251.808 211.662C254.944 210.527 256.935 203.41 256.935 203.41C256.935 203.41 258.357 197.009 257.644 196.014C256.93 195.02 252.944 195.302 251.808 193.881C250.671 192.46 243.831 190.894 243.831 190.894C243.831 190.894 236.444 184.774 235.59 184.774C234.735 184.774 232.462 187.19 230.108 185.342C225.419 181.873 220.492 178.736 215.364 175.954C209.955 173.107 205.17 159.738 205.17 159.738Z" fill="#4B4B5B"/>
<path opacity="0.1" d="M191.272 163.864C192.503 163.613 193.775 163.649 194.99 163.97C196.204 164.29 197.328 164.887 198.274 165.712C201.692 168.558 213.194 174.272 213.194 174.272" fill="black"/>
<path opacity="0.1" d="M276.729 163.685C276.729 163.685 261.489 165.99 258.644 169.117L276.729 163.685Z" fill="black"/>
<path d="M294.246 210.805H293.575C291.165 210.719 283.001 210.463 281.428 210.805C279.578 211.231 255.08 210.805 255.08 210.805L259.87 209.81C259.87 209.81 258.092 203.589 259.22 203.072C259.22 203.072 252.812 198.856 257.644 196.01C262.476 193.164 267.684 194.363 267.684 194.363L279.813 190.258L282.142 189.468C282.142 189.468 295.814 190.181 299.514 199.569C303.213 208.957 294.246 210.805 294.246 210.805Z" fill="#E7C7CA"/>
<path opacity="0.1" d="M294.246 210.805H293.575C297.553 207.527 306.55 197.55 279.813 190.279L282.142 189.49C282.142 189.49 295.814 190.202 299.514 199.59C303.214 208.978 294.246 210.805 294.246 210.805Z" fill="black"/>
<path d="M269.111 199.744C269.524 199.744 269.859 199.409 269.859 198.997C269.859 198.585 269.524 198.25 269.111 198.25C268.698 198.25 268.363 198.585 268.363 198.997C268.363 199.409 268.698 199.744 269.111 199.744Z" fill="#4B4B5B"/>
<path d="M264.766 200.977C265.179 200.977 265.514 200.643 265.514 200.23C265.514 199.818 265.179 199.484 264.766 199.484C264.353 199.484 264.018 199.818 264.018 200.23C264.018 200.643 264.353 200.977 264.766 200.977Z" fill="#4B4B5B"/>
<g opacity="0.1">
<path opacity="0.1" d="M243.596 42.4214C243.762 37.7277 242.926 33.0525 241.144 28.7063C235.589 29.5341 229.506 25.254 224.447 27.8144C220.704 29.7091 219.529 34.4586 219.32 38.6448C219.269 39.75 219.26 40.8553 219.282 41.9605C219.282 41.5679 219.282 41.171 219.32 40.7785C219.517 36.5922 220.692 31.8427 224.447 29.948C229.506 27.3877 235.581 31.655 241.144 30.8399C242.653 34.5213 243.484 38.4449 243.596 42.4214Z" fill="black"/>
<path opacity="0.1" d="M200.556 41.6404C200.629 40.7106 200.61 39.7758 200.5 38.8496C200.047 35.0944 197.992 31.5056 197.621 27.8442C197.142 32.2609 199.958 36.5026 200.5 40.9833C200.556 41.2137 200.556 41.4185 200.556 41.6404Z" fill="black"/>
<path opacity="0.1" d="M223.067 79.9352C222.802 83.1015 222.055 86.4855 219.649 88.585C217.244 90.6845 212.813 90.5693 211.476 87.6931C211.049 86.8396 210.985 85.8454 210.57 84.9919C209.622 83.0375 207.289 82.2779 205.251 81.5141C199.462 79.3505 193.878 75.1131 192.635 69.0493C192.524 68.4999 192.448 67.944 192.408 67.385C192.303 68.6553 192.379 69.9341 192.635 71.1829C193.878 77.2297 199.471 81.4842 205.251 83.6477C207.289 84.4116 209.622 85.1711 210.57 87.1256C210.998 87.979 211.07 88.9648 211.476 89.8268C212.822 92.7029 217.261 92.8139 219.649 90.7186C222.038 88.6234 222.781 85.2351 223.067 82.0688C223.197 80.4022 223.241 78.7301 223.2 77.059C223.2 78.0277 223.144 78.9835 223.067 79.9352Z" fill="black"/>
<path opacity="0.1" d="M256.067 48.6772C256.067 49.296 256.067 49.9105 256.067 50.525C256.307 42.5878 259.22 34.6079 258.934 26.8372C258.712 34.0233 256.23 41.3716 256.067 48.6772Z" fill="black"/>
<path opacity="0.1" d="M246.899 80.7843C247.004 80.278 247.037 79.7594 246.997 79.2438C246.825 78.1395 246.437 77.0796 245.856 76.1244C243.387 71.4304 240.571 66.6254 240.238 61.415C240.238 61.6369 240.208 61.8418 240.204 62.0807C240.033 67.8587 243.156 73.1459 245.856 78.2581C246.315 79.0499 246.666 79.8995 246.899 80.7843Z" fill="black"/>
<path opacity="0.1" d="M258.524 74.6097C258.205 79.7796 256.732 84.8128 254.213 89.3404C251.957 93.4413 247.971 97.5251 243.353 96.7357C242.939 96.7 242.55 96.5238 242.25 96.2364C242.164 96.1387 242.095 96.0258 242.05 95.9035C241.998 96.2364 241.956 96.5735 241.93 96.9149C241.842 97.4231 241.957 97.9457 242.25 98.37C242.55 98.6575 242.939 98.8337 243.353 98.8693C247.971 99.6588 251.957 95.575 254.213 91.4741C256.732 86.9464 258.205 81.9133 258.524 76.7433C258.575 75.7448 258.58 74.7505 258.55 73.7562C258.541 74.0421 258.541 74.3238 258.524 74.6097Z" fill="black"/>
</g>
<path opacity="0.1" d="M259.22 203.072C259.22 203.072 270.034 207.604 277.165 197.576" stroke="black" stroke-miterlimit="10"/>
<path opacity="0.1" d="M261.348 210.992C261.348 210.992 270.179 205.257 281.428 210.805" stroke="black" stroke-miterlimit="10"/>
<path opacity="0.1" d="M202.235 209.691C202.235 209.691 205.943 201.336 215.847 207.707" stroke="black" stroke-miterlimit="10"/>
<path opacity="0.1" d="M190.212 86.127L197.775 79.2993C197.775 79.2993 227.096 77.379 228.31 87.3347C228.31 87.3347 238.704 75.5313 260.566 78.1599L269.816 85.5168L244.25 96.7227L219.406 105.33L201.107 97.1494L190.212 86.127Z" fill="black"/>
<path d="M190.212 86.5538L197.775 79.7261C197.775 79.7261 227.096 77.8058 228.31 87.7614C228.31 87.7614 238.704 75.958 260.566 78.5867L269.816 85.9435L244.25 97.1495L219.406 105.757L201.107 97.5762L190.212 86.5538Z" fill="#D5D6DB"/>
<path opacity="0.1" d="M186.867 87.4071L190.212 127.379L225.673 129.158L224.135 89.3573L224.105 88.6873L186.867 87.4071Z" fill="black"/>
<path d="M186.867 86.5537L190.212 126.526L225.673 128.305L224.135 88.5039L224.105 87.8339L186.867 86.5537Z" fill="#26B1FF"/>
<path opacity="0.1" d="M271.44 86.5537L234.859 92.0329V132.184L270.606 127.025L271.44 86.5537Z" fill="black"/>
<path d="M271.44 85.7002L234.859 91.1794V131.33L270.606 126.171L271.44 85.7002Z" fill="#26B1FF"/>
<path opacity="0.3" d="M262.813 95.4979L243.053 97.6913L243.485 104.417L262.801 102.309L262.813 95.4979Z" fill="white"/>
<path d="M192.135 147.93L194.147 153.337C194.147 153.337 197.138 155.897 200.411 154.617C203.683 153.337 206.537 152.701 207.96 151.455C209.383 150.209 211.378 143.949 211.378 143.949C211.378 143.949 213.373 137.121 215.364 135.414C217.355 133.707 222.627 110.19 215.364 112.49C208.101 114.791 202.547 136.127 202.547 136.127C202.547 136.127 201.265 137.689 199.415 137.834C197.565 137.979 193.861 137.548 193.148 139.114C192.434 140.68 189.999 144.802 192.135 147.93Z" fill="#BE6F72"/>
<path opacity="0.1" d="M234.859 92.0287C232.986 92.4503 231.041 92.4282 229.178 91.9644C227.315 91.5005 225.587 90.6077 224.131 89.3574L225.673 129.154C225.673 129.154 229.305 133.08 234.859 132.184V92.0287Z" fill="black"/>
<path d="M234.859 91.1752C232.986 91.5968 231.041 91.5747 229.178 91.1109C227.315 90.647 225.587 89.7542 224.131 88.5039L225.673 128.301C225.673 128.301 229.305 132.227 234.859 131.331V91.1752Z" fill="#26B1FF"/>
<path opacity="0.1" d="M234.859 91.1752C232.986 91.5968 231.041 91.5747 229.178 91.1109C227.315 90.647 225.587 89.7542 224.131 88.5039L225.673 128.301C225.673 128.301 229.305 132.227 234.859 131.331V91.1752Z" fill="black"/>
<path opacity="0.1" d="M235.714 86.6902C235.714 86.6902 250.594 82.1456 254.474 82.7857L235.714 86.6902Z" fill="black"/>
<path opacity="0.1" d="M219.068 84.706C219.068 84.706 204.645 81.2921 202.235 82.2608L219.068 84.706Z" fill="black"/>
<path opacity="0.1" d="M245.096 87.2578C245.096 87.2578 255.046 83.6135 258.644 85.3461L245.096 87.2578Z" fill="black"/>
<path opacity="0.1" d="M240.084 178.676C241.626 177.52 243.267 176.501 244.989 175.634C247.552 174.4 252.252 171.2 252.252 171.2" fill="black"/>
<path opacity="0.1" d="M202.235 135.128C202.235 135.128 195.993 140.228 194.117 140.676C192.242 141.124 191.084 145.101 191.084 145.101" fill="black"/>
<path d="M267.77 147.171L265.779 152.59C265.779 152.59 262.788 155.151 259.511 153.87C256.234 152.59 253.389 151.954 251.962 150.708C250.535 149.462 248.544 143.202 248.544 143.202C248.544 143.202 246.553 136.374 244.558 134.668C242.562 132.961 237.295 109.444 244.558 111.744C251.821 114.044 257.375 135.38 257.375 135.38C257.375 135.38 258.657 136.942 260.507 137.087C262.357 137.232 266.061 136.801 266.774 138.367C267.488 139.933 269.906 144.056 267.77 147.171Z" fill="#BE6F72"/>
<path opacity="0.1" d="M264.279 137.202C264.279 137.202 268.359 139.822 268.342 142.955L264.279 137.202Z" fill="black"/>
<path d="M229.66 61.2529C240.2 61.2529 248.745 52.7185 248.745 42.1908C248.745 31.6632 240.2 23.1288 229.66 23.1288C219.119 23.1288 210.575 31.6632 210.575 42.1908C210.575 52.7185 219.119 61.2529 229.66 61.2529Z" fill="#BE6F72"/>
<path d="M217.676 37.0743C219.991 36.7116 222.021 35.3674 224.234 34.595C229.185 32.8582 234.663 34.0488 239.674 35.6149C241.597 36.2166 243.549 36.8951 245.566 36.8951C247.582 36.8951 249.723 36.0715 250.753 34.3347C251.701 32.7388 251.517 30.6648 250.718 28.9878C249.919 27.3107 248.582 25.9623 247.232 24.6906C242.789 20.5001 237.277 16.5827 231.181 17.0095C228.728 17.1844 226.383 18.0592 224.127 19.0279C221.286 20.2505 218.521 21.6413 215.847 23.1928C213.792 24.3834 209.985 25.9751 208.802 28.1514C206.11 33.0545 213.489 37.7315 217.676 37.0743Z" fill="#3E373A"/>
<path opacity="0.1" d="M250.753 32.5424C249.723 34.2792 247.582 35.1028 245.566 35.1028C243.549 35.1028 241.597 34.4499 239.67 33.8482C234.658 32.2821 229.185 31.0873 224.229 32.8283C222.021 33.6007 219.987 34.962 217.671 35.3034C214.296 35.8325 208.862 32.8966 208.272 29.1627C207.61 33.477 213.912 37.1724 217.671 36.5836C219.987 36.2208 222.021 34.8766 224.229 34.1085C229.185 32.3675 234.658 33.5623 239.67 35.1284C241.597 35.7301 243.545 36.4086 245.566 36.383C247.587 36.3574 249.723 35.5637 250.753 33.8226C251.286 32.8755 251.496 31.7803 251.351 30.7032C251.284 31.3517 251.08 31.9786 250.753 32.5424Z" fill="black"/>
<path d="M405.632 263.809C405.632 263.809 408.165 267.116 404.461 272.113C400.757 277.11 397.707 281.326 398.937 284.441C398.937 284.441 404.525 275.164 409.071 275.032C413.617 274.9 410.626 269.386 405.632 263.809Z" fill="#26B1FF"/>
<path opacity="0.1" d="M405.632 263.809C405.853 264.128 406.027 264.478 406.149 264.846C410.584 270.052 412.951 274.912 408.683 275.032C404.709 275.147 399.945 282.244 398.805 284.032C398.841 284.176 398.885 284.319 398.937 284.458C398.937 284.458 404.525 275.181 409.071 275.049C413.617 274.917 410.626 269.386 405.632 263.809Z" fill="black"/>
<path d="M410.331 268.025C410.331 269.19 410.199 270.133 410.041 270.133C409.883 270.133 409.746 269.19 409.746 268.025C409.746 266.86 409.908 267.41 410.071 267.41C410.233 267.41 410.331 266.86 410.331 268.025Z" fill="#FFD037"/>
<path d="M411.951 269.416C410.93 269.971 410.037 270.308 409.96 270.167C409.883 270.026 410.648 269.459 411.669 268.887C412.69 268.315 412.288 268.733 412.365 268.887C412.442 269.041 412.976 268.857 411.951 269.416Z" fill="#FFD037"/>
<path d="M392.242 263.809C392.242 263.809 389.709 267.116 393.413 272.113C397.117 277.11 400.168 281.326 398.933 284.441C398.933 284.441 393.349 275.164 388.799 275.032C384.248 274.9 387.261 269.386 392.242 263.809Z" fill="#26B1FF"/>
<path opacity="0.1" d="M392.242 263.809C392.022 264.128 391.847 264.478 391.725 264.846C387.29 270.052 384.924 274.912 389.192 275.032C393.161 275.147 397.929 282.244 399.069 284.032C399.034 284.177 398.988 284.319 398.933 284.458C398.933 284.458 393.349 275.181 388.799 275.049C384.248 274.917 387.261 269.386 392.242 263.809Z" fill="black"/>
<path d="M387.534 268.025C387.534 269.19 387.662 270.133 387.824 270.133C387.987 270.133 388.119 269.19 388.119 268.025C388.119 266.86 387.953 267.41 387.795 267.41C387.636 267.41 387.534 266.86 387.534 268.025Z" fill="#FFD037"/>
<path d="M385.919 269.416C386.94 269.971 387.833 270.308 387.91 270.167C387.987 270.026 387.222 269.459 386.201 268.887C385.18 268.315 385.581 268.733 385.504 268.887C385.428 269.041 384.893 268.857 385.919 269.416Z" fill="#FFD037"/>
<path opacity="0.1" d="M398.937 309.755C413.566 309.755 425.426 307.938 425.426 305.697C425.426 303.455 413.566 301.639 398.937 301.639C384.308 301.639 372.448 303.455 372.448 305.697C372.448 307.938 384.308 309.755 398.937 309.755Z" fill="#26B1FF"/>
<path d="M412.57 279.982L412.442 281.015L412.263 282.474L412.19 283.084L412.011 284.544L411.934 285.154L411.758 286.609L409.729 303.209C409.55 304.69 407.127 305.846 404.201 305.846H393.669C390.742 305.846 388.324 304.69 388.141 303.209L386.111 286.609L385.932 285.154L385.859 284.544L385.68 283.084L385.603 282.474L385.428 281.015L385.299 279.982C385.201 279.129 386.508 278.437 388.166 278.437H409.708C411.361 278.437 412.673 279.141 412.57 279.982Z" fill="#65617D"/>
<path d="M412.442 281.015L412.267 282.474H385.607L385.428 281.015H412.442Z" fill="#9D9CB5"/>
<path d="M412.19 283.084L412.015 284.544H385.859L385.68 283.084H412.19Z" fill="#9D9CB5"/>
<path d="M411.938 285.154L411.759 286.613H386.111L385.936 285.154H411.938Z" fill="#9D9CB5"/>
</g>
<defs>
<linearGradient id="paint0_linear" x1="233.547" y1="214.184" x2="233.547" y2="-4.33018e-05" gradientUnits="userSpaceOnUse">
<stop stop-color="#808080" stop-opacity="0.25"/>
<stop offset="0.54" stop-color="#808080" stop-opacity="0.12"/>
<stop offset="1" stop-color="#808080" stop-opacity="0.1"/>
</linearGradient>
<clipPath id="clip0">
<rect width="437" height="347" fill="white"/>
</clipPath>
</defs>
</svg>
