<svg width="368" height="432" viewBox="0 0 368 432" fill="none" xmlns="http://www.w3.org/2000/svg">
<g clip-path="url(#clip0)">
<g opacity="0.5">
<path opacity="0.5" d="M209.001 0.310257L8.23566 0.797923C6.04798 0.802329 3.95158 1.67515 2.40725 3.22453C0.862924 4.77391 -0.00293542 6.87305 7.47731e-06 9.06054L0.914462 379.094C0.917369 380.177 1.13371 381.25 1.55111 382.25C1.96852 383.25 2.57882 384.158 3.34718 384.922C4.11553 385.686 5.02688 386.291 6.02921 386.703C7.03154 387.115 8.10521 387.326 9.18892 387.323L209.954 386.835C212.142 386.83 214.238 385.955 215.781 384.405C217.324 382.854 218.189 380.755 218.184 378.567L217.253 8.53408C217.246 6.35044 216.373 4.25875 214.826 2.71727C213.279 1.1758 211.185 0.310245 209.001 0.310257Z" fill="url(#paint0_linear)"/>
<path opacity="0.5" d="M206.771 -0.00483636L10.4902 0.474725C6.31517 0.484925 2.93893 3.87738 2.94914 8.05199L3.84456 374.476C3.85476 378.651 7.24754 382.027 11.4225 382.017L207.703 381.537C211.878 381.527 215.255 378.135 215.244 373.96L214.349 7.53549C214.339 3.36088 210.946 -0.0150369 206.771 -0.00483636Z" fill="white"/>
<path opacity="0.5" d="M209.283 105.724L209.073 17.6113C209.067 15.4826 208.216 13.4433 206.707 11.9417C205.198 10.4402 203.154 9.59915 201.025 9.60356L161.759 9.69777C161.158 13.7453 159.129 17.4442 156.038 20.1255C152.946 22.8068 148.998 24.2935 144.906 24.3167L71.8874 24.494C67.7952 24.4911 63.839 23.0239 60.7346 20.3578C57.6301 17.6917 55.5824 14.0028 54.9617 9.95823L16.2829 10.0524C14.154 10.0583 12.1145 10.9092 10.6128 12.418C9.11111 13.9269 8.27002 15.9702 8.27443 18.0989L8.49058 106.954L9.11685 364.453C9.12712 366.581 9.98229 368.619 11.4944 370.117C13.0065 371.616 15.0518 372.452 17.1807 372.444L201.923 371.995C204.046 371.983 206.077 371.132 207.573 369.627C209.07 368.123 209.91 366.087 209.91 363.965L209.283 105.724Z" fill="#BBBBBB"/>
<path opacity="0.5" d="M129.176 14.053L84.2895 14.7267C83.6774 14.7359 83.1886 15.2395 83.1978 15.8515L83.2087 16.5774C83.2179 17.1894 83.7215 17.6782 84.3336 17.669L129.22 16.9952C129.832 16.9861 130.321 16.4824 130.312 15.8704L130.301 15.1445C130.292 14.5325 129.788 14.0438 129.176 14.053Z" fill="#DBDBDB"/>
<path opacity="0.5" d="M140.339 16.8285C141.315 16.8139 142.095 16.0106 142.08 15.0344C142.065 14.0582 141.262 13.2787 140.286 13.2933C139.31 13.308 138.53 14.1113 138.545 15.0875C138.559 16.0637 139.363 16.8432 140.339 16.8285Z" fill="#DBDBDB"/>
<path opacity="0.5" d="M190.479 57.3673H92.0557V65.2143H190.479V57.3673Z" fill="#E0E0E0"/>
<path opacity="0.5" d="M190.479 73.0611H92.0557V80.9081H190.479V73.0611Z" fill="#E0E0E0"/>
<path opacity="0.5" d="M43.2789 84.5768C53.545 84.5768 61.8673 76.2156 61.8673 65.9014C61.8673 55.5873 53.545 47.226 43.2789 47.226C33.0128 47.226 24.6904 55.5873 24.6904 65.9014C24.6904 76.2156 33.0128 84.5768 43.2789 84.5768Z" fill="#F5F5F5"/>
<path opacity="0.5" d="M51.2872 78.9742H35.1651C34.3916 78.9801 33.631 79.1726 32.9478 79.5353C32.2647 79.8981 31.6792 80.4204 31.2412 81.0579C34.8638 83.136 38.963 84.2406 43.1393 84.2639C47.3157 84.2872 51.427 83.2285 55.0725 81.1909C54.6632 80.5472 54.1063 80.0103 53.448 79.6248C52.7897 79.2393 52.049 79.0163 51.2872 78.9742Z" fill="#26B1FF"/>
<path opacity="0.5" d="M35.2988 66.378C35.2988 66.378 32.9378 73.2496 31.6465 72.6068C31.6465 72.6068 44.0831 83.3466 55.0621 72.6068C53.7409 70.3491 52.1537 68.2579 50.3347 66.378H35.2988Z" fill="#333333"/>
<path opacity="0.5" d="M43.2671 74.9732C48.3696 74.9732 52.5059 70.8372 52.5059 65.7353C52.5059 60.6333 48.3696 56.4973 43.2671 56.4973C38.1647 56.4973 34.0283 60.6333 34.0283 65.7353C34.0283 70.8372 38.1647 74.9732 43.2671 74.9732Z" fill="#333333"/>
<path opacity="0.1" d="M40.0199 75.771H46.4654V78.2759C46.4654 79.0607 46.1536 79.8134 45.5986 80.3684C45.0436 80.9234 44.2908 81.2351 43.5059 81.2351H42.9517C42.1668 81.2351 41.414 80.9234 40.859 80.3684C40.304 79.8134 39.9922 79.0607 39.9922 78.2759V75.771H40.0199Z" fill="black"/>
<path opacity="0.5" d="M40.7014 75.616H45.7891C45.9699 75.616 46.1433 75.6878 46.2712 75.8156C46.399 75.9435 46.4708 76.1168 46.4708 76.2976V78.1374C46.4708 78.9223 46.159 79.675 45.604 80.2299C45.049 80.7849 44.2962 81.0967 43.5113 81.0967H42.9571C42.176 81.0908 41.4289 80.7765 40.8787 80.2221C40.3285 79.6678 40.0197 78.9185 40.0197 78.1374V76.3142C40.0175 76.2233 40.0335 76.1329 40.0668 76.0483C40.1 75.9637 40.1499 75.8865 40.2134 75.8215C40.2769 75.7564 40.3528 75.7047 40.4367 75.6694C40.5205 75.6341 40.6105 75.616 40.7014 75.616Z" fill="#FDA57D"/>
<path opacity="0.1" d="M40.0361 76.5469C42.1155 77.3177 44.4023 77.3177 46.4817 76.5469V75.7988H40.0361V76.5469Z" fill="black"/>
<path opacity="0.5" d="M43.2671 76.9791C48.3696 76.9791 52.5059 72.8431 52.5059 67.7411C52.5059 62.6392 48.3696 58.5032 43.2671 58.5032C38.1647 58.5032 34.0283 62.6392 34.0283 67.7411C34.0283 72.8431 38.1647 76.9791 43.2671 76.9791Z" fill="#FDA57D"/>
<path opacity="0.5" d="M34.4395 64.2334H52.0525C52.0525 64.2334 50.5505 57.1234 43.8888 57.5834C37.2272 58.0434 34.4395 64.2334 34.4395 64.2334Z" fill="#333333"/>
<path opacity="0.5" d="M34.2228 68.9603C34.6972 68.9603 35.0818 68.2383 35.0818 67.3477C35.0818 66.457 34.6972 65.735 34.2228 65.735C33.7484 65.735 33.3638 66.457 33.3638 67.3477C33.3638 68.2383 33.7484 68.9603 34.2228 68.9603Z" fill="#FDA57D"/>
<path opacity="0.5" d="M52.2687 68.9603C52.7431 68.9603 53.1277 68.2383 53.1277 67.3477C53.1277 66.457 52.7431 65.735 52.2687 65.735C51.7943 65.735 51.4097 66.457 51.4097 67.3477C51.4097 68.2383 51.7943 68.9603 52.2687 68.9603Z" fill="#FDA57D"/>
<path opacity="0.1" d="M34.4395 64.4771H52.0525C52.0525 64.4771 50.5505 57.3671 43.8888 57.8271C37.2272 58.287 34.4395 64.4771 34.4395 64.4771Z" fill="black"/>
<path opacity="0.5" d="M190.479 117.139H92.0557V124.986H190.479V117.139Z" fill="#E0E0E0"/>
<path opacity="0.5" d="M190.479 132.834H92.0557V140.681H190.479V132.834Z" fill="#E0E0E0"/>
<path opacity="0.5" d="M43.2789 144.349C53.545 144.349 61.8673 135.988 61.8673 125.674C61.8673 115.36 53.545 106.998 43.2789 106.998C33.0128 106.998 24.6904 115.36 24.6904 125.674C24.6904 135.988 33.0128 144.349 43.2789 144.349Z" fill="#E0E0E0"/>
<path opacity="0.5" d="M190.479 176.912H92.0557V184.759H190.479V176.912Z" fill="#E0E0E0"/>
<path opacity="0.5" d="M190.479 192.606H92.0557V200.453H190.479V192.606Z" fill="#E0E0E0"/>
<path opacity="0.5" d="M43.2789 204.122C53.545 204.122 61.8673 195.76 61.8673 185.446C61.8673 175.132 53.545 166.771 43.2789 166.771C33.0128 166.771 24.6904 175.132 24.6904 185.446C24.6904 195.76 33.0128 204.122 43.2789 204.122Z" fill="#E0E0E0"/>
<path opacity="0.5" d="M190.479 236.684H92.0557V244.531H190.479V236.684Z" fill="#E0E0E0"/>
<path opacity="0.5" d="M190.479 252.378H92.0557V260.225H190.479V252.378Z" fill="#E0E0E0"/>
<path opacity="0.5" d="M43.2789 263.894C53.545 263.894 61.8673 255.532 61.8673 245.218C61.8673 234.904 53.545 226.543 43.2789 226.543C33.0128 226.543 24.6904 234.904 24.6904 245.218C24.6904 255.532 33.0128 263.894 43.2789 263.894Z" fill="#E0E0E0"/>
<path opacity="0.5" d="M190.479 296.457H92.0557V304.304H190.479V296.457Z" fill="#E0E0E0"/>
<path opacity="0.5" d="M190.479 312.15H92.0557V319.997H190.479V312.15Z" fill="#E0E0E0"/>
<path opacity="0.5" d="M43.2789 323.666C53.545 323.666 61.8673 315.305 61.8673 304.991C61.8673 294.677 53.545 286.315 43.2789 286.315C33.0128 286.315 24.6904 294.677 24.6904 304.991C24.6904 315.305 33.0128 323.666 43.2789 323.666Z" fill="#E0E0E0"/>
</g>
<path d="M338.216 46.7993L137.445 47.287C135.258 47.2929 133.162 48.1671 131.619 49.7175C130.075 51.268 129.211 53.3677 129.215 55.5552L130.13 423.776C130.133 424.86 130.349 425.932 130.766 426.932C131.184 427.932 131.794 428.84 132.563 429.604C133.331 430.369 134.242 430.974 135.245 431.386C136.247 431.798 137.321 432.009 138.404 432.006L339.18 431.518C341.364 431.509 343.456 430.635 344.996 429.087C346.537 427.54 347.401 425.445 347.399 423.261L346.485 55.0398C346.484 53.9557 346.268 52.8826 345.852 51.8816C345.436 50.8807 344.826 49.9716 344.058 49.2064C343.29 48.4411 342.379 47.8346 341.377 47.4216C340.374 47.0086 339.3 46.7972 338.216 46.7993Z" fill="url(#paint1_linear)"/>
<path d="M335.984 44.6721L139.704 45.1517C135.529 45.1619 132.152 48.5543 132.163 52.729L133.058 419.153C133.068 423.328 136.461 426.704 140.636 426.694L336.917 426.214C341.092 426.204 344.468 422.812 344.458 418.637L343.562 52.2125C343.552 48.0378 340.159 44.6619 335.984 44.6721Z" fill="white"/>
<path d="M338.498 151.005L338.288 62.2662C338.282 60.1375 337.431 58.0982 335.922 56.5967C334.413 55.0951 332.369 54.2541 330.241 54.2585L290.963 54.3527C290.362 58.4002 288.333 62.0991 285.242 64.7805C282.15 67.4618 278.202 68.9484 274.109 68.9716L201.097 69.1489C197.005 69.146 193.049 67.6788 189.944 65.0127C186.84 62.3466 184.792 58.6577 184.171 54.6132L145.492 54.7074C143.363 54.7132 141.324 55.5641 139.822 57.073C138.321 58.5818 137.479 60.6252 137.484 62.7539L137.7 151.609" fill="#FAFAFA"/>
<path d="M137.701 151.614L138.327 409.113C138.333 411.242 139.184 413.281 140.693 414.782C142.202 416.284 144.245 417.125 146.374 417.121L331.117 416.672C333.246 416.666 335.285 415.815 336.787 414.306C338.288 412.797 339.13 410.754 339.125 408.625L338.493 150.384" fill="#FAFAFA"/>
<path d="M194.708 91.1769H155.458V130.423H194.708V91.1769Z" fill="#E0E0E0"/>
<g opacity="0.5">
<path opacity="0.5" d="M367.999 163.025H108.831V251.176H367.999V163.025Z" fill="url(#paint2_linear)"/>
</g>
<path d="M364.918 166.649H111.918V248.155H364.918V166.649Z" fill="white"/>
<path d="M311.243 196.834H212.819V204.681H311.243V196.834Z" fill="#26B1FF"/>
<path d="M311.243 212.534H212.819V220.381H311.243V212.534Z" fill="#26B1FF"/>
<path d="M311.243 283.777H212.819V291.624H311.243V283.777Z" fill="#E0E0E0"/>
<path d="M311.243 299.471H212.819V307.318H311.243V299.471Z" fill="#EEEEEE"/>
<path d="M284.069 122.57H239.992V136.458H284.069V122.57Z" fill="#26B1FF"/>
<path d="M164.043 224.044C174.309 224.044 182.631 215.682 182.631 205.368C182.631 195.054 174.309 186.693 164.043 186.693C153.776 186.693 145.454 195.054 145.454 205.368C145.454 215.682 153.776 224.044 164.043 224.044Z" fill="#F5F5F5"/>
<path d="M172.051 218.441H155.923C155.15 218.447 154.389 218.639 153.706 219.002C153.023 219.365 152.438 219.887 152 220.525C155.622 222.603 159.721 223.707 163.898 223.731C168.074 223.754 172.185 222.695 175.831 220.658C175.422 220.015 174.866 219.478 174.209 219.093C173.551 218.707 172.812 218.484 172.051 218.441Z" fill="#26B1FF"/>
<path d="M156.062 205.851C156.062 205.851 153.701 212.722 152.41 212.079C152.41 212.079 164.846 222.819 175.825 212.079C174.504 209.822 172.917 207.73 171.098 205.851H156.062Z" fill="#333333"/>
<path d="M164.032 214.446C169.134 214.446 173.271 210.31 173.271 205.208C173.271 200.106 169.134 195.97 164.032 195.97C158.929 195.97 154.793 200.106 154.793 205.208C154.793 210.31 158.929 214.446 164.032 214.446Z" fill="#333333"/>
<path opacity="0.1" d="M160.785 215.244H167.23V217.748C167.23 218.533 166.918 219.286 166.363 219.841C165.808 220.396 165.055 220.708 164.271 220.708H163.716C162.931 220.708 162.179 220.396 161.624 219.841C161.069 219.286 160.757 218.533 160.757 217.748V215.244H160.785Z" fill="black"/>
<path d="M161.466 215.089H166.554C166.735 215.089 166.908 215.16 167.036 215.288C167.164 215.416 167.236 215.589 167.236 215.77V217.593C167.236 217.983 167.16 218.369 167.011 218.729C166.863 219.089 166.644 219.416 166.369 219.691C166.093 219.967 165.766 220.185 165.406 220.334C165.046 220.483 164.66 220.559 164.271 220.558H163.716C162.931 220.558 162.179 220.246 161.624 219.691C161.069 219.136 160.757 218.384 160.757 217.599V215.776C160.757 215.686 160.774 215.598 160.809 215.515C160.843 215.432 160.893 215.357 160.956 215.294C161.02 215.23 161.095 215.18 161.178 215.146C161.26 215.112 161.349 215.094 161.439 215.094L161.466 215.089Z" fill="#FDA57D"/>
<path opacity="0.1" d="M160.795 216.003C162.874 216.773 165.161 216.773 167.24 216.003V215.21H160.795V216.003Z" fill="black"/>
<path d="M164.032 216.446C169.134 216.446 173.271 212.31 173.271 207.208C173.271 202.106 169.134 197.97 164.032 197.97C158.929 197.97 154.793 202.106 154.793 207.208C154.793 212.31 158.929 216.446 164.032 216.446Z" fill="#FDA57D"/>
<path d="M155.181 203.706H172.794C172.794 203.706 171.292 196.596 164.63 197.056C157.968 197.516 155.181 203.706 155.181 203.706Z" fill="#333333"/>
<path d="M154.987 208.427C155.461 208.427 155.846 207.705 155.846 206.815C155.846 205.924 155.461 205.202 154.987 205.202C154.513 205.202 154.128 205.924 154.128 206.815C154.128 207.705 154.513 208.427 154.987 208.427Z" fill="#FDA57D"/>
<path d="M173.026 208.427C173.5 208.427 173.885 207.705 173.885 206.815C173.885 205.924 173.5 205.202 173.026 205.202C172.552 205.202 172.167 205.924 172.167 206.815C172.167 207.705 172.552 208.427 173.026 208.427Z" fill="#FDA57D"/>
<path opacity="0.1" d="M155.181 203.944H172.794C172.794 203.944 171.292 196.834 164.63 197.294C157.968 197.754 155.181 203.944 155.181 203.944Z" fill="black"/>
<path d="M176.119 311.591C186.385 311.591 194.707 303.229 194.707 292.915C194.707 282.601 186.385 274.24 176.119 274.24C165.853 274.24 157.53 282.601 157.53 292.915C157.53 303.229 165.853 311.591 176.119 311.591Z" fill="#E0E0E0"/>
<path d="M176.119 383.438C186.385 383.438 194.707 375.077 194.707 364.763C194.707 354.449 186.385 346.088 176.119 346.088C165.853 346.088 157.53 354.449 157.53 364.763C157.53 375.077 165.853 383.438 176.119 383.438Z" fill="#E0E0E0"/>
<path d="M311.243 353.209H212.819V361.056H311.243V353.209Z" fill="#E0E0E0"/>
<path d="M311.243 368.903H212.819V376.75H311.243V368.903Z" fill="#EEEEEE"/>
<path d="M311.243 91.1769H212.819V99.0239H311.243V91.1769Z" fill="#E0E0E0"/>
<path d="M311.243 106.876H212.819V114.723H311.243V106.876Z" fill="#E0E0E0"/>
<path d="M258.387 58.7363L213.5 59.41C212.888 59.4192 212.4 59.9228 212.409 60.5348L212.42 61.2607C212.429 61.8728 212.932 62.3615 213.545 62.3523L258.431 61.6785C259.043 61.6694 259.532 61.1658 259.523 60.5537L259.512 59.8278C259.503 59.2158 258.999 58.7271 258.387 58.7363Z" fill="#DBDBDB"/>
<path d="M269.552 61.5174C270.528 61.5028 271.308 60.6995 271.293 59.7233C271.278 58.7471 270.475 57.9676 269.499 57.9823C268.522 57.9969 267.743 58.8002 267.757 59.7764C267.772 60.7526 268.575 61.5321 269.552 61.5174Z" fill="#DBDBDB"/>
</g>
<defs>
<linearGradient id="paint0_linear" x1="24.6586" y1="394.541" x2="193.503" y2="-6.92234" gradientUnits="userSpaceOnUse">
<stop stop-color="#808080" stop-opacity="0.25"/>
<stop offset="0.54" stop-color="#808080" stop-opacity="0.12"/>
<stop offset="1" stop-color="#808080" stop-opacity="0.1"/>
</linearGradient>
<linearGradient id="paint1_linear" x1="121826" y1="329957" x2="278887" y2="119885" gradientUnits="userSpaceOnUse">
<stop stop-color="#808080" stop-opacity="0.25"/>
<stop offset="0.54" stop-color="#808080" stop-opacity="0.12"/>
<stop offset="1" stop-color="#808080" stop-opacity="0.1"/>
</linearGradient>
<linearGradient id="paint2_linear" x1="111598" y1="40116.7" x2="111598" y2="26095.3" gradientUnits="userSpaceOnUse">
<stop stop-color="#808080" stop-opacity="0.25"/>
<stop offset="0.54" stop-color="#808080" stop-opacity="0.12"/>
<stop offset="1" stop-color="#808080" stop-opacity="0.1"/>
</linearGradient>
<clipPath id="clip0">
<rect width="368" height="432" fill="white"/>
</clipPath>
</defs>
</svg>
