<svg width="460" height="369" viewBox="0 0 460 369" fill="none" xmlns="http://www.w3.org/2000/svg">
<rect x="24" y="184" width="412" height="92" fill="#F1F8FC"/>
<path d="M114.368 228H115.968V217.328H113.68L110.576 224.992L107.472 217.328H105.184V228H106.784V219.52L110.24 228H110.912L114.368 219.52V228ZM119.162 218.976C119.674 218.976 120.09 218.576 120.09 218.064C120.09 217.552 119.674 217.136 119.162 217.136C118.666 217.136 118.234 217.552 118.234 218.064C118.234 218.576 118.666 218.976 119.162 218.976ZM118.458 228H119.898V220.272H118.458V228ZM127.847 228H129.287V217.328H127.847V221.392C127.223 220.56 126.311 220.08 125.319 220.08C123.303 220.08 121.863 221.664 121.863 224.144C121.863 226.672 123.303 228.192 125.319 228.192C126.343 228.192 127.271 227.664 127.847 226.896V228ZM127.847 225.792C127.447 226.416 126.583 226.912 125.703 226.912C124.263 226.912 123.367 225.744 123.367 224.144C123.367 222.528 124.263 221.36 125.703 221.36C126.583 221.36 127.447 221.872 127.847 222.496V225.792ZM133.871 228.192C134.623 228.192 135.071 227.984 135.375 227.696L135.007 226.608C134.863 226.768 134.559 226.912 134.223 226.912C133.727 226.912 133.471 226.512 133.471 225.968V221.536H135.039V220.272H133.471V218.16H132.031V220.272H130.751V221.536H132.031V226.288C132.031 227.504 132.655 228.192 133.871 228.192ZM136.303 224.128C136.303 226.56 137.999 228.192 140.303 228.192C141.551 228.192 142.639 227.792 143.407 227.04L142.735 226.096C142.159 226.688 141.263 227.008 140.447 227.008C138.895 227.008 137.935 225.92 137.823 224.608H143.935V224.256C143.935 221.888 142.495 220.08 140.175 220.08C137.919 220.08 136.303 221.888 136.303 224.128ZM140.175 221.264C141.807 221.264 142.495 222.544 142.527 223.568H137.807C137.887 222.512 138.623 221.264 140.175 221.264ZM145.886 228H147.326V222.624C147.662 222.048 148.638 221.504 149.358 221.504C149.55 221.504 149.71 221.52 149.854 221.552V220.096C148.83 220.096 147.918 220.688 147.326 221.456V220.272H145.886V228ZM160.835 228H162.275V222.416C162.275 220.864 161.507 220.08 160.083 220.08C158.947 220.08 157.923 220.8 157.475 221.52C157.235 220.688 156.547 220.08 155.379 220.08C154.227 220.08 153.203 220.88 152.883 221.36V220.272H151.443V228H152.883V222.48C153.267 221.92 154.019 221.36 154.771 221.36C155.747 221.36 156.131 221.952 156.131 222.848V228H157.571V222.464C157.939 221.904 158.707 221.36 159.491 221.36C160.435 221.36 160.835 221.952 160.835 222.848V228Z" fill="#486271"/>
<circle cx="68" cy="230" r="20" fill="#F1F8FC"/>
<circle cx="68" cy="230" r="19" stroke="#486271" stroke-opacity="0.5" stroke-width="2"/>
<path d="M65.1172 236.707C65.2578 236.927 65.4688 237 65.75 237C65.9961 237 66.207 236.927 66.3828 236.707L76.7539 225.932C76.8945 225.785 77 225.565 77 225.272C77 225.016 76.8945 224.796 76.7539 224.613L75.4531 223.293C75.2773 223.11 75.0664 223 74.8203 223C74.5742 223 74.3633 223.11 74.1875 223.293L65.75 232.089L61.8125 227.984C61.6016 227.801 61.3906 227.691 61.1445 227.691C60.8984 227.691 60.6875 227.801 60.5469 227.984L59.2461 229.304C59.0703 229.487 59 229.707 59 229.963C59 230.257 59.0703 230.476 59.2461 230.623L65.1172 236.707Z" fill="#486271" fill-opacity="0.5"/>
<path d="M109.312 244H104.532V243.185L106.9 240.602C107.242 240.221 107.485 239.903 107.628 239.649C107.774 239.392 107.848 239.135 107.848 238.878C107.848 238.539 107.752 238.266 107.56 238.058C107.371 237.849 107.115 237.745 106.793 237.745C106.409 237.745 106.111 237.862 105.899 238.097C105.688 238.331 105.582 238.652 105.582 239.059H104.396C104.396 238.626 104.493 238.237 104.688 237.892C104.887 237.543 105.169 237.273 105.533 237.081C105.901 236.889 106.324 236.793 106.803 236.793C107.493 236.793 108.036 236.967 108.434 237.315C108.834 237.66 109.034 238.139 109.034 238.751C109.034 239.106 108.933 239.479 108.731 239.869C108.533 240.257 108.206 240.698 107.75 241.192L106.012 243.053H109.312V244ZM116.496 244H111.716V243.185L114.084 240.602C114.426 240.221 114.668 239.903 114.812 239.649C114.958 239.392 115.031 239.135 115.031 238.878C115.031 238.539 114.935 238.266 114.743 238.058C114.554 237.849 114.299 237.745 113.977 237.745C113.592 237.745 113.295 237.862 113.083 238.097C112.871 238.331 112.766 238.652 112.766 239.059H111.579C111.579 238.626 111.677 238.237 111.872 237.892C112.071 237.543 112.352 237.273 112.717 237.081C113.085 236.889 113.508 236.793 113.986 236.793C114.676 236.793 115.22 236.967 115.617 237.315C116.018 237.66 116.218 238.139 116.218 238.751C116.218 239.106 116.117 239.479 115.915 239.869C115.716 240.257 115.389 240.698 114.934 241.192L113.195 243.053H116.496V244ZM127.177 240.987H124.315V244H123.08V236.891H127.597V237.887H124.315V240.001H127.177V240.987ZM134.233 240.826H131.313V243.014H134.727V244H130.078V236.891H134.692V237.887H131.313V239.85H134.233V240.826ZM137.232 244V236.891H139.669C140.473 236.891 141.085 237.052 141.505 237.374C141.925 237.696 142.135 238.176 142.135 238.814C142.135 239.14 142.047 239.433 141.871 239.693C141.695 239.954 141.438 240.156 141.1 240.299C141.484 240.403 141.78 240.6 141.988 240.89C142.2 241.176 142.306 241.521 142.306 241.925C142.306 242.592 142.091 243.105 141.661 243.463C141.235 243.821 140.623 244 139.825 244H137.232ZM138.468 240.792V243.014H139.84C140.227 243.014 140.53 242.918 140.748 242.726C140.966 242.534 141.075 242.267 141.075 241.925C141.075 241.186 140.698 240.808 139.942 240.792H138.468ZM138.468 239.884H139.679C140.063 239.884 140.362 239.798 140.577 239.625C140.795 239.449 140.904 239.202 140.904 238.883C140.904 238.531 140.803 238.277 140.602 238.121C140.403 237.965 140.092 237.887 139.669 237.887H138.468V239.884ZM145.095 245.602L144.455 245.221C144.644 244.924 144.772 244.666 144.841 244.444C144.912 244.226 144.95 244.003 144.953 243.775V242.853H146.022L146.018 243.707C146.014 244.052 145.926 244.397 145.754 244.742C145.585 245.09 145.365 245.377 145.095 245.602ZM157.318 244H152.538V243.185L154.906 240.602C155.248 240.221 155.491 239.903 155.634 239.649C155.78 239.392 155.854 239.135 155.854 238.878C155.854 238.539 155.757 238.266 155.565 238.058C155.377 237.849 155.121 237.745 154.799 237.745C154.415 237.745 154.117 237.862 153.905 238.097C153.694 238.331 153.588 238.652 153.588 239.059H152.401C152.401 238.626 152.499 238.237 152.694 237.892C152.893 237.543 153.174 237.273 153.539 237.081C153.907 236.889 154.33 236.793 154.809 236.793C155.499 236.793 156.042 236.967 156.439 237.315C156.84 237.66 157.04 238.139 157.04 238.751C157.04 239.106 156.939 239.479 156.737 239.869C156.539 240.257 156.212 240.698 155.756 241.192L154.018 243.053H157.318V244ZM164.355 241.007C164.355 242.029 164.163 242.8 163.779 243.321C163.398 243.839 162.817 244.098 162.036 244.098C161.268 244.098 160.688 243.845 160.298 243.341C159.91 242.833 159.712 242.083 159.702 241.09V239.859C159.702 238.837 159.893 238.071 160.273 237.56C160.658 237.049 161.242 236.793 162.026 236.793C162.804 236.793 163.384 237.042 163.765 237.54C164.149 238.038 164.346 238.784 164.355 239.776V241.007ZM163.169 239.679C163.169 239.011 163.078 238.523 162.896 238.214C162.713 237.901 162.424 237.745 162.026 237.745C161.639 237.745 161.354 237.893 161.172 238.189C160.99 238.482 160.894 238.941 160.884 239.566V241.178C160.884 241.842 160.977 242.337 161.162 242.662C161.348 242.988 161.639 243.15 162.036 243.15C162.417 243.15 162.699 243.001 162.881 242.701C163.063 242.398 163.159 241.926 163.169 241.285V239.679ZM170.118 244H168.937V238.292L167.193 238.888V237.887L169.967 236.866H170.118V244ZM177.453 241.026C177.056 241.446 176.592 241.656 176.062 241.656C175.437 241.656 174.938 241.438 174.567 241.002C174.196 240.562 174.011 239.986 174.011 239.273C174.011 238.805 174.105 238.38 174.294 237.999C174.483 237.618 174.751 237.322 175.1 237.11C175.448 236.899 175.852 236.793 176.311 236.793C177.027 236.793 177.595 237.06 178.015 237.594C178.435 238.128 178.645 238.842 178.645 239.737V240.069C178.645 241.352 178.355 242.33 177.775 243.004C177.196 243.678 176.332 244.02 175.183 244.029H175.041V243.048H175.212C175.912 243.038 176.449 242.87 176.823 242.545C177.198 242.216 177.408 241.71 177.453 241.026ZM176.311 240.729C176.548 240.729 176.771 240.66 176.979 240.523C177.188 240.387 177.349 240.198 177.463 239.957V239.493C177.463 238.969 177.355 238.548 177.141 238.229C176.926 237.91 176.647 237.75 176.306 237.75C175.964 237.75 175.69 237.892 175.485 238.175C175.284 238.455 175.183 238.81 175.183 239.239C175.183 239.685 175.285 240.045 175.49 240.318C175.695 240.592 175.969 240.729 176.311 240.729Z" fill="#486271" fill-opacity="0.5"/>
<rect x="24" width="412" height="92" fill="#F1F8FC"/>
<path d="M114.368 44H115.968V33.328H113.68L110.576 40.992L107.472 33.328H105.184V44H106.784V35.52L110.24 44H110.912L114.368 35.52V44ZM119.162 34.976C119.674 34.976 120.09 34.576 120.09 34.064C120.09 33.552 119.674 33.136 119.162 33.136C118.666 33.136 118.234 33.552 118.234 34.064C118.234 34.576 118.666 34.976 119.162 34.976ZM118.458 44H119.898V36.272H118.458V44ZM127.847 44H129.287V33.328H127.847V37.392C127.223 36.56 126.311 36.08 125.319 36.08C123.303 36.08 121.863 37.664 121.863 40.144C121.863 42.672 123.303 44.192 125.319 44.192C126.343 44.192 127.271 43.664 127.847 42.896V44ZM127.847 41.792C127.447 42.416 126.583 42.912 125.703 42.912C124.263 42.912 123.367 41.744 123.367 40.144C123.367 38.528 124.263 37.36 125.703 37.36C126.583 37.36 127.447 37.872 127.847 38.496V41.792ZM133.871 44.192C134.623 44.192 135.071 43.984 135.375 43.696L135.007 42.608C134.863 42.768 134.559 42.912 134.223 42.912C133.727 42.912 133.471 42.512 133.471 41.968V37.536H135.039V36.272H133.471V34.16H132.031V36.272H130.751V37.536H132.031V42.288C132.031 43.504 132.655 44.192 133.871 44.192ZM136.303 40.128C136.303 42.56 137.999 44.192 140.303 44.192C141.551 44.192 142.639 43.792 143.407 43.04L142.735 42.096C142.159 42.688 141.263 43.008 140.447 43.008C138.895 43.008 137.935 41.92 137.823 40.608H143.935V40.256C143.935 37.888 142.495 36.08 140.175 36.08C137.919 36.08 136.303 37.888 136.303 40.128ZM140.175 37.264C141.807 37.264 142.495 38.544 142.527 39.568H137.807C137.887 38.512 138.623 37.264 140.175 37.264ZM145.886 44H147.326V38.624C147.662 38.048 148.638 37.504 149.358 37.504C149.55 37.504 149.71 37.52 149.854 37.552V36.096C148.83 36.096 147.918 36.688 147.326 37.456V36.272H145.886V44ZM160.835 44H162.275V38.416C162.275 36.864 161.507 36.08 160.083 36.08C158.947 36.08 157.923 36.8 157.475 37.52C157.235 36.688 156.547 36.08 155.379 36.08C154.227 36.08 153.203 36.88 152.883 37.36V36.272H151.443V44H152.883V38.48C153.267 37.92 154.019 37.36 154.771 37.36C155.747 37.36 156.131 37.952 156.131 38.848V44H157.571V38.464C157.939 37.904 158.707 37.36 159.491 37.36C160.435 37.36 160.835 37.952 160.835 38.848V44Z" fill="#486271"/>
<circle cx="68" cy="46" r="20" fill="#F1F8FC"/>
<circle cx="68" cy="46" r="19" stroke="#486271" stroke-opacity="0.5" stroke-width="2"/>
<path d="M65.1172 52.7068C65.2578 52.9267 65.4688 53 65.75 53C65.9961 53 66.207 52.9267 66.3828 52.7068L76.7539 41.9319C76.8945 41.7853 77 41.5654 77 41.2723C77 41.0157 76.8945 40.7958 76.7539 40.6126L75.4531 39.2932C75.2773 39.1099 75.0664 39 74.8203 39C74.5742 39 74.3633 39.1099 74.1875 39.2932L65.75 48.089L61.8125 43.9843C61.6016 43.801 61.3906 43.6911 61.1445 43.6911C60.8984 43.6911 60.6875 43.801 60.5469 43.9843L59.2461 45.3037C59.0703 45.4869 59 45.7068 59 45.9634C59 46.2565 59.0703 46.4764 59.2461 46.623L65.1172 52.7068Z" fill="#486271" fill-opacity="0.5"/>
<path d="M109.312 60H104.532V59.1846L106.9 56.6016C107.242 56.2207 107.485 55.9033 107.628 55.6494C107.774 55.3923 107.848 55.1351 107.848 54.8779C107.848 54.5394 107.752 54.266 107.56 54.0576C107.371 53.8493 107.115 53.7451 106.793 53.7451C106.409 53.7451 106.111 53.8623 105.899 54.0967C105.688 54.3311 105.582 54.6517 105.582 55.0586H104.396C104.396 54.6257 104.493 54.2367 104.688 53.8916C104.887 53.5433 105.169 53.2731 105.533 53.0811C105.901 52.889 106.324 52.793 106.803 52.793C107.493 52.793 108.036 52.9671 108.434 53.3154C108.834 53.6605 109.034 54.139 109.034 54.751C109.034 55.1058 108.933 55.4785 108.731 55.8691C108.533 56.2565 108.206 56.6976 107.75 57.1924L106.012 59.0527H109.312V60ZM116.496 60H111.716V59.1846L114.084 56.6016C114.426 56.2207 114.668 55.9033 114.812 55.6494C114.958 55.3923 115.031 55.1351 115.031 54.8779C115.031 54.5394 114.935 54.266 114.743 54.0576C114.554 53.8493 114.299 53.7451 113.977 53.7451C113.592 53.7451 113.295 53.8623 113.083 54.0967C112.871 54.3311 112.766 54.6517 112.766 55.0586H111.579C111.579 54.6257 111.677 54.2367 111.872 53.8916C112.071 53.5433 112.352 53.2731 112.717 53.0811C113.085 52.889 113.508 52.793 113.986 52.793C114.676 52.793 115.22 52.9671 115.617 53.3154C116.018 53.6605 116.218 54.139 116.218 54.751C116.218 55.1058 116.117 55.4785 115.915 55.8691C115.716 56.2565 115.389 56.6976 114.934 57.1924L113.195 59.0527H116.496V60ZM127.177 56.9873H124.315V60H123.08V52.8906H127.597V53.8867H124.315V56.001H127.177V56.9873ZM134.233 56.8262H131.313V59.0137H134.727V60H130.078V52.8906H134.692V53.8867H131.313V55.8496H134.233V56.8262ZM137.232 60V52.8906H139.669C140.473 52.8906 141.085 53.0518 141.505 53.374C141.925 53.6963 142.135 54.1764 142.135 54.8145C142.135 55.14 142.047 55.4329 141.871 55.6934C141.695 55.9538 141.438 56.1556 141.1 56.2988C141.484 56.403 141.78 56.5999 141.988 56.8896C142.2 57.1761 142.306 57.5212 142.306 57.9248C142.306 58.5921 142.091 59.1048 141.661 59.4629C141.235 59.821 140.623 60 139.825 60H137.232ZM138.468 56.792V59.0137H139.84C140.227 59.0137 140.53 58.9176 140.748 58.7256C140.966 58.5335 141.075 58.2666 141.075 57.9248C141.075 57.1859 140.698 56.8083 139.942 56.792H138.468ZM138.468 55.8838H139.679C140.063 55.8838 140.362 55.7975 140.577 55.625C140.795 55.4492 140.904 55.2018 140.904 54.8828C140.904 54.5312 140.803 54.2773 140.602 54.1211C140.403 53.9648 140.092 53.8867 139.669 53.8867H138.468V55.8838ZM145.095 61.6016L144.455 61.2207C144.644 60.9245 144.772 60.6657 144.841 60.4443C144.912 60.2262 144.95 60.0033 144.953 59.7754V58.8525H146.022L146.018 59.707C146.014 60.0521 145.926 60.3971 145.754 60.7422C145.585 61.0905 145.365 61.377 145.095 61.6016ZM157.318 60H152.538V59.1846L154.906 56.6016C155.248 56.2207 155.491 55.9033 155.634 55.6494C155.78 55.3923 155.854 55.1351 155.854 54.8779C155.854 54.5394 155.757 54.266 155.565 54.0576C155.377 53.8493 155.121 53.7451 154.799 53.7451C154.415 53.7451 154.117 53.8623 153.905 54.0967C153.694 54.3311 153.588 54.6517 153.588 55.0586H152.401C152.401 54.6257 152.499 54.2367 152.694 53.8916C152.893 53.5433 153.174 53.2731 153.539 53.0811C153.907 52.889 154.33 52.793 154.809 52.793C155.499 52.793 156.042 52.9671 156.439 53.3154C156.84 53.6605 157.04 54.139 157.04 54.751C157.04 55.1058 156.939 55.4785 156.737 55.8691C156.539 56.2565 156.212 56.6976 155.756 57.1924L154.018 59.0527H157.318V60ZM164.355 57.0068C164.355 58.029 164.163 58.8005 163.779 59.3213C163.398 59.8389 162.817 60.0977 162.036 60.0977C161.268 60.0977 160.688 59.8454 160.298 59.3408C159.91 58.833 159.712 58.0827 159.702 57.0898V55.8594C159.702 54.8372 159.893 54.0706 160.273 53.5596C160.658 53.0485 161.242 52.793 162.026 52.793C162.804 52.793 163.384 53.042 163.765 53.54C164.149 54.0381 164.346 54.7835 164.355 55.7764V57.0068ZM163.169 55.6787C163.169 55.0114 163.078 54.5231 162.896 54.2139C162.713 53.9014 162.424 53.7451 162.026 53.7451C161.639 53.7451 161.354 53.8932 161.172 54.1895C160.99 54.4824 160.894 54.9414 160.884 55.5664V57.1777C160.884 57.8418 160.977 58.3366 161.162 58.6621C161.348 58.9876 161.639 59.1504 162.036 59.1504C162.417 59.1504 162.699 59.0007 162.881 58.7012C163.063 58.3984 163.159 57.9264 163.169 57.2852V55.6787ZM170.118 60H168.937V54.292L167.193 54.8877V53.8867L169.967 52.8662H170.118V60ZM177.453 57.0264C177.056 57.4463 176.592 57.6562 176.062 57.6562C175.437 57.6562 174.938 57.4382 174.567 57.002C174.196 56.5625 174.011 55.9863 174.011 55.2734C174.011 54.8047 174.105 54.3799 174.294 53.999C174.483 53.6182 174.751 53.3219 175.1 53.1104C175.448 52.8988 175.852 52.793 176.311 52.793C177.027 52.793 177.595 53.0599 178.015 53.5938C178.435 54.1276 178.645 54.8421 178.645 55.7373V56.0693C178.645 57.3519 178.355 58.3301 177.775 59.0039C177.196 59.6777 176.332 60.0195 175.183 60.0293H175.041V59.0479H175.212C175.912 59.0381 176.449 58.8704 176.823 58.5449C177.198 58.2161 177.408 57.71 177.453 57.0264ZM176.311 56.7285C176.548 56.7285 176.771 56.6602 176.979 56.5234C177.188 56.3867 177.349 56.1979 177.463 55.957V55.4932C177.463 54.9691 177.355 54.5475 177.141 54.2285C176.926 53.9095 176.647 53.75 176.306 53.75C175.964 53.75 175.69 53.8916 175.485 54.1748C175.284 54.4548 175.183 54.8096 175.183 55.2393C175.183 55.6852 175.285 56.0449 175.49 56.3184C175.695 56.5918 175.969 56.7285 176.311 56.7285Z" fill="#486271" fill-opacity="0.5"/>
<rect x="24" y="277" width="412" height="92" fill="#F1F8FC"/>
<rect x="24" y="276" width="412" height="1" fill="#9DADB7" fill-opacity="0.33"/>
<circle cx="67" cy="323" r="19" fill="#F1F8FC"/>
<circle cx="67" cy="323" r="18" stroke="#486271" stroke-opacity="0.5" stroke-width="2"/>
<path d="M65.1172 329.707C65.2578 329.927 65.4688 330 65.75 330C65.9961 330 66.207 329.927 66.3828 329.707L76.7539 318.932C76.8945 318.785 77 318.565 77 318.272C77 318.016 76.8945 317.796 76.7539 317.613L75.4531 316.293C75.2773 316.11 75.0664 316 74.8203 316C74.5742 316 74.3633 316.11 74.1875 316.293L65.75 325.089L61.8125 320.984C61.6016 320.801 61.3906 320.691 61.1445 320.691C60.8984 320.691 60.6875 320.801 60.5469 320.984L59.2461 322.304C59.0703 322.487 59 322.707 59 322.963C59 323.257 59.0703 323.476 59.2461 323.623L65.1172 329.707Z" fill="#9DADB7"/>
<path d="M112.368 321H113.968V310.328H111.68L108.576 317.992L105.472 310.328H103.184V321H104.784V312.52L108.24 321H108.912L112.368 312.52V321ZM117.162 311.976C117.674 311.976 118.09 311.576 118.09 311.064C118.09 310.552 117.674 310.136 117.162 310.136C116.666 310.136 116.234 310.552 116.234 311.064C116.234 311.576 116.666 311.976 117.162 311.976ZM116.458 321H117.898V313.272H116.458V321ZM125.847 321H127.287V310.328H125.847V314.392C125.223 313.56 124.311 313.08 123.319 313.08C121.303 313.08 119.863 314.664 119.863 317.144C119.863 319.672 121.303 321.192 123.319 321.192C124.343 321.192 125.271 320.664 125.847 319.896V321ZM125.847 318.792C125.447 319.416 124.583 319.912 123.703 319.912C122.263 319.912 121.367 318.744 121.367 317.144C121.367 315.528 122.263 314.36 123.703 314.36C124.583 314.36 125.447 314.872 125.847 315.496V318.792ZM131.871 321.192C132.623 321.192 133.071 320.984 133.375 320.696L133.007 319.608C132.863 319.768 132.559 319.912 132.223 319.912C131.727 319.912 131.471 319.512 131.471 318.968V314.536H133.039V313.272H131.471V311.16H130.031V313.272H128.751V314.536H130.031V319.288C130.031 320.504 130.655 321.192 131.871 321.192ZM134.303 317.128C134.303 319.56 135.999 321.192 138.303 321.192C139.551 321.192 140.639 320.792 141.407 320.04L140.735 319.096C140.159 319.688 139.263 320.008 138.447 320.008C136.895 320.008 135.935 318.92 135.823 317.608H141.935V317.256C141.935 314.888 140.495 313.08 138.175 313.08C135.919 313.08 134.303 314.888 134.303 317.128ZM138.175 314.264C139.807 314.264 140.495 315.544 140.527 316.568H135.807C135.887 315.512 136.623 314.264 138.175 314.264ZM143.886 321H145.326V315.624C145.662 315.048 146.638 314.504 147.358 314.504C147.55 314.504 147.71 314.52 147.854 314.552V313.096C146.83 313.096 145.918 313.688 145.326 314.456V313.272H143.886V321ZM158.835 321H160.275V315.416C160.275 313.864 159.507 313.08 158.083 313.08C156.947 313.08 155.923 313.8 155.475 314.52C155.235 313.688 154.547 313.08 153.379 313.08C152.227 313.08 151.203 313.88 150.883 314.36V313.272H149.443V321H150.883V315.48C151.267 314.92 152.019 314.36 152.771 314.36C153.747 314.36 154.131 314.952 154.131 315.848V321H155.571V315.464C155.939 314.904 156.707 314.36 157.491 314.36C158.435 314.36 158.835 314.952 158.835 315.848V321Z" fill="#486271"/>
<path d="M107.312 337H102.532V336.185L104.9 333.602C105.242 333.221 105.485 332.903 105.628 332.649C105.774 332.392 105.848 332.135 105.848 331.878C105.848 331.539 105.752 331.266 105.56 331.058C105.371 330.849 105.115 330.745 104.793 330.745C104.409 330.745 104.111 330.862 103.899 331.097C103.688 331.331 103.582 331.652 103.582 332.059H102.396C102.396 331.626 102.493 331.237 102.688 330.892C102.887 330.543 103.169 330.273 103.533 330.081C103.901 329.889 104.324 329.793 104.803 329.793C105.493 329.793 106.036 329.967 106.434 330.315C106.834 330.66 107.034 331.139 107.034 331.751C107.034 332.106 106.933 332.479 106.731 332.869C106.533 333.257 106.206 333.698 105.75 334.192L104.012 336.053H107.312V337ZM114.496 337H109.716V336.185L112.084 333.602C112.426 333.221 112.668 332.903 112.812 332.649C112.958 332.392 113.031 332.135 113.031 331.878C113.031 331.539 112.935 331.266 112.743 331.058C112.554 330.849 112.299 330.745 111.977 330.745C111.592 330.745 111.295 330.862 111.083 331.097C110.871 331.331 110.766 331.652 110.766 332.059H109.579C109.579 331.626 109.677 331.237 109.872 330.892C110.071 330.543 110.352 330.273 110.717 330.081C111.085 329.889 111.508 329.793 111.986 329.793C112.676 329.793 113.22 329.967 113.617 330.315C114.018 330.66 114.218 331.139 114.218 331.751C114.218 332.106 114.117 332.479 113.915 332.869C113.716 333.257 113.389 333.698 112.934 334.192L111.195 336.053H114.496V337ZM125.177 333.987H122.315V337H121.08V329.891H125.597V330.887H122.315V333.001H125.177V333.987ZM132.233 333.826H129.313V336.014H132.727V337H128.078V329.891H132.692V330.887H129.313V332.85H132.233V333.826ZM135.232 337V329.891H137.669C138.473 329.891 139.085 330.052 139.505 330.374C139.925 330.696 140.135 331.176 140.135 331.814C140.135 332.14 140.047 332.433 139.871 332.693C139.695 332.954 139.438 333.156 139.1 333.299C139.484 333.403 139.78 333.6 139.988 333.89C140.2 334.176 140.306 334.521 140.306 334.925C140.306 335.592 140.091 336.105 139.661 336.463C139.235 336.821 138.623 337 137.825 337H135.232ZM136.468 333.792V336.014H137.84C138.227 336.014 138.53 335.918 138.748 335.726C138.966 335.534 139.075 335.267 139.075 334.925C139.075 334.186 138.698 333.808 137.942 333.792H136.468ZM136.468 332.884H137.679C138.063 332.884 138.362 332.798 138.577 332.625C138.795 332.449 138.904 332.202 138.904 331.883C138.904 331.531 138.803 331.277 138.602 331.121C138.403 330.965 138.092 330.887 137.669 330.887H136.468V332.884ZM143.095 338.602L142.455 338.221C142.644 337.924 142.772 337.666 142.841 337.444C142.912 337.226 142.95 337.003 142.953 336.775V335.853H144.022L144.018 336.707C144.014 337.052 143.926 337.397 143.754 337.742C143.585 338.09 143.365 338.377 143.095 338.602ZM155.318 337H150.538V336.185L152.906 333.602C153.248 333.221 153.491 332.903 153.634 332.649C153.78 332.392 153.854 332.135 153.854 331.878C153.854 331.539 153.757 331.266 153.565 331.058C153.377 330.849 153.121 330.745 152.799 330.745C152.415 330.745 152.117 330.862 151.905 331.097C151.694 331.331 151.588 331.652 151.588 332.059H150.401C150.401 331.626 150.499 331.237 150.694 330.892C150.893 330.543 151.174 330.273 151.539 330.081C151.907 329.889 152.33 329.793 152.809 329.793C153.499 329.793 154.042 329.967 154.439 330.315C154.84 330.66 155.04 331.139 155.04 331.751C155.04 332.106 154.939 332.479 154.737 332.869C154.539 333.257 154.212 333.698 153.756 334.192L152.018 336.053H155.318V337ZM162.355 334.007C162.355 335.029 162.163 335.8 161.779 336.321C161.398 336.839 160.817 337.098 160.036 337.098C159.268 337.098 158.688 336.845 158.298 336.341C157.91 335.833 157.712 335.083 157.702 334.09V332.859C157.702 331.837 157.893 331.071 158.273 330.56C158.658 330.049 159.242 329.793 160.026 329.793C160.804 329.793 161.384 330.042 161.765 330.54C162.149 331.038 162.346 331.784 162.355 332.776V334.007ZM161.169 332.679C161.169 332.011 161.078 331.523 160.896 331.214C160.713 330.901 160.424 330.745 160.026 330.745C159.639 330.745 159.354 330.893 159.172 331.189C158.99 331.482 158.894 331.941 158.884 332.566V334.178C158.884 334.842 158.977 335.337 159.162 335.662C159.348 335.988 159.639 336.15 160.036 336.15C160.417 336.15 160.699 336.001 160.881 335.701C161.063 335.398 161.159 334.926 161.169 334.285V332.679ZM168.118 337H166.937V331.292L165.193 331.888V330.887L167.967 329.866H168.118V337ZM175.453 334.026C175.056 334.446 174.592 334.656 174.062 334.656C173.437 334.656 172.938 334.438 172.567 334.002C172.196 333.562 172.011 332.986 172.011 332.273C172.011 331.805 172.105 331.38 172.294 330.999C172.483 330.618 172.751 330.322 173.1 330.11C173.448 329.899 173.852 329.793 174.311 329.793C175.027 329.793 175.595 330.06 176.015 330.594C176.435 331.128 176.645 331.842 176.645 332.737V333.069C176.645 334.352 176.355 335.33 175.775 336.004C175.196 336.678 174.332 337.02 173.183 337.029H173.041V336.048H173.212C173.912 336.038 174.449 335.87 174.823 335.545C175.198 335.216 175.408 334.71 175.453 334.026ZM174.311 333.729C174.548 333.729 174.771 333.66 174.979 333.523C175.188 333.387 175.349 333.198 175.463 332.957V332.493C175.463 331.969 175.355 331.548 175.141 331.229C174.926 330.91 174.647 330.75 174.306 330.75C173.964 330.75 173.69 330.892 173.485 331.175C173.284 331.455 173.183 331.81 173.183 332.239C173.183 332.685 173.285 333.045 173.49 333.318C173.695 333.592 173.969 333.729 174.311 333.729Z" fill="#486271" fill-opacity="0.5"/>
<g filter="url(#filter0_d)">
<rect x="15" y="90" width="430" height="96" fill="white"/>
</g>
<path d="M114.368 136H115.968V125.328H113.68L110.576 132.992L107.472 125.328H105.184V136H106.784V127.52L110.24 136H110.912L114.368 127.52V136ZM119.162 126.976C119.674 126.976 120.09 126.576 120.09 126.064C120.09 125.552 119.674 125.136 119.162 125.136C118.666 125.136 118.234 125.552 118.234 126.064C118.234 126.576 118.666 126.976 119.162 126.976ZM118.458 136H119.898V128.272H118.458V136ZM127.847 136H129.287V125.328H127.847V129.392C127.223 128.56 126.311 128.08 125.319 128.08C123.303 128.08 121.863 129.664 121.863 132.144C121.863 134.672 123.303 136.192 125.319 136.192C126.343 136.192 127.271 135.664 127.847 134.896V136ZM127.847 133.792C127.447 134.416 126.583 134.912 125.703 134.912C124.263 134.912 123.367 133.744 123.367 132.144C123.367 130.528 124.263 129.36 125.703 129.36C126.583 129.36 127.447 129.872 127.847 130.496V133.792ZM133.871 136.192C134.623 136.192 135.071 135.984 135.375 135.696L135.007 134.608C134.863 134.768 134.559 134.912 134.223 134.912C133.727 134.912 133.471 134.512 133.471 133.968V129.536H135.039V128.272H133.471V126.16H132.031V128.272H130.751V129.536H132.031V134.288C132.031 135.504 132.655 136.192 133.871 136.192ZM136.303 132.128C136.303 134.56 137.999 136.192 140.303 136.192C141.551 136.192 142.639 135.792 143.407 135.04L142.735 134.096C142.159 134.688 141.263 135.008 140.447 135.008C138.895 135.008 137.935 133.92 137.823 132.608H143.935V132.256C143.935 129.888 142.495 128.08 140.175 128.08C137.919 128.08 136.303 129.888 136.303 132.128ZM140.175 129.264C141.807 129.264 142.495 130.544 142.527 131.568H137.807C137.887 130.512 138.623 129.264 140.175 129.264ZM145.886 136H147.326V130.624C147.662 130.048 148.638 129.504 149.358 129.504C149.55 129.504 149.71 129.52 149.854 129.552V128.096C148.83 128.096 147.918 128.688 147.326 129.456V128.272H145.886V136ZM160.835 136H162.275V130.416C162.275 128.864 161.507 128.08 160.083 128.08C158.947 128.08 157.923 128.8 157.475 129.52C157.235 128.688 156.547 128.08 155.379 128.08C154.227 128.08 153.203 128.88 152.883 129.36V128.272H151.443V136H152.883V130.48C153.267 129.92 154.019 129.36 154.771 129.36C155.747 129.36 156.131 129.952 156.131 130.848V136H157.571V130.464C157.939 129.904 158.707 129.36 159.491 129.36C160.435 129.36 160.835 129.952 160.835 130.848V136Z" fill="#486271"/>
<circle cx="68" cy="138" r="19.5" fill="#6FE7AD" stroke="#6FE7AD"/>
<path d="M65.1172 144.707C65.2578 144.927 65.4688 145 65.75 145C65.9961 145 66.207 144.927 66.3828 144.707L76.7539 133.932C76.8945 133.785 77 133.565 77 133.272C77 133.016 76.8945 132.796 76.7539 132.613L75.4531 131.293C75.2773 131.11 75.0664 131 74.8203 131C74.5742 131 74.3633 131.11 74.1875 131.293L65.75 140.089L61.8125 135.984C61.6016 135.801 61.3906 135.691 61.1445 135.691C60.8984 135.691 60.6875 135.801 60.5469 135.984L59.2461 137.304C59.0703 137.487 59 137.707 59 137.963C59 138.257 59.0703 138.476 59.2461 138.623L65.1172 144.707Z" fill="white"/>
<path d="M109.312 152H104.532V151.185L106.9 148.602C107.242 148.221 107.485 147.903 107.628 147.649C107.774 147.392 107.848 147.135 107.848 146.878C107.848 146.539 107.752 146.266 107.56 146.058C107.371 145.849 107.115 145.745 106.793 145.745C106.409 145.745 106.111 145.862 105.899 146.097C105.688 146.331 105.582 146.652 105.582 147.059H104.396C104.396 146.626 104.493 146.237 104.688 145.892C104.887 145.543 105.169 145.273 105.533 145.081C105.901 144.889 106.324 144.793 106.803 144.793C107.493 144.793 108.036 144.967 108.434 145.315C108.834 145.66 109.034 146.139 109.034 146.751C109.034 147.106 108.933 147.479 108.731 147.869C108.533 148.257 108.206 148.698 107.75 149.192L106.012 151.053H109.312V152ZM116.496 152H111.716V151.185L114.084 148.602C114.426 148.221 114.668 147.903 114.812 147.649C114.958 147.392 115.031 147.135 115.031 146.878C115.031 146.539 114.935 146.266 114.743 146.058C114.554 145.849 114.299 145.745 113.977 145.745C113.592 145.745 113.295 145.862 113.083 146.097C112.871 146.331 112.766 146.652 112.766 147.059H111.579C111.579 146.626 111.677 146.237 111.872 145.892C112.071 145.543 112.352 145.273 112.717 145.081C113.085 144.889 113.508 144.793 113.986 144.793C114.676 144.793 115.22 144.967 115.617 145.315C116.018 145.66 116.218 146.139 116.218 146.751C116.218 147.106 116.117 147.479 115.915 147.869C115.716 148.257 115.389 148.698 114.934 149.192L113.195 151.053H116.496V152ZM127.177 148.987H124.315V152H123.08V144.891H127.597V145.887H124.315V148.001H127.177V148.987ZM134.233 148.826H131.313V151.014H134.727V152H130.078V144.891H134.692V145.887H131.313V147.85H134.233V148.826ZM137.232 152V144.891H139.669C140.473 144.891 141.085 145.052 141.505 145.374C141.925 145.696 142.135 146.176 142.135 146.814C142.135 147.14 142.047 147.433 141.871 147.693C141.695 147.954 141.438 148.156 141.1 148.299C141.484 148.403 141.78 148.6 141.988 148.89C142.2 149.176 142.306 149.521 142.306 149.925C142.306 150.592 142.091 151.105 141.661 151.463C141.235 151.821 140.623 152 139.825 152H137.232ZM138.468 148.792V151.014H139.84C140.227 151.014 140.53 150.918 140.748 150.726C140.966 150.534 141.075 150.267 141.075 149.925C141.075 149.186 140.698 148.808 139.942 148.792H138.468ZM138.468 147.884H139.679C140.063 147.884 140.362 147.798 140.577 147.625C140.795 147.449 140.904 147.202 140.904 146.883C140.904 146.531 140.803 146.277 140.602 146.121C140.403 145.965 140.092 145.887 139.669 145.887H138.468V147.884ZM145.095 153.602L144.455 153.221C144.644 152.924 144.772 152.666 144.841 152.444C144.912 152.226 144.95 152.003 144.953 151.775V150.853H146.022L146.018 151.707C146.014 152.052 145.926 152.397 145.754 152.742C145.585 153.09 145.365 153.377 145.095 153.602ZM157.318 152H152.538V151.185L154.906 148.602C155.248 148.221 155.491 147.903 155.634 147.649C155.78 147.392 155.854 147.135 155.854 146.878C155.854 146.539 155.757 146.266 155.565 146.058C155.377 145.849 155.121 145.745 154.799 145.745C154.415 145.745 154.117 145.862 153.905 146.097C153.694 146.331 153.588 146.652 153.588 147.059H152.401C152.401 146.626 152.499 146.237 152.694 145.892C152.893 145.543 153.174 145.273 153.539 145.081C153.907 144.889 154.33 144.793 154.809 144.793C155.499 144.793 156.042 144.967 156.439 145.315C156.84 145.66 157.04 146.139 157.04 146.751C157.04 147.106 156.939 147.479 156.737 147.869C156.539 148.257 156.212 148.698 155.756 149.192L154.018 151.053H157.318V152ZM164.355 149.007C164.355 150.029 164.163 150.8 163.779 151.321C163.398 151.839 162.817 152.098 162.036 152.098C161.268 152.098 160.688 151.845 160.298 151.341C159.91 150.833 159.712 150.083 159.702 149.09V147.859C159.702 146.837 159.893 146.071 160.273 145.56C160.658 145.049 161.242 144.793 162.026 144.793C162.804 144.793 163.384 145.042 163.765 145.54C164.149 146.038 164.346 146.784 164.355 147.776V149.007ZM163.169 147.679C163.169 147.011 163.078 146.523 162.896 146.214C162.713 145.901 162.424 145.745 162.026 145.745C161.639 145.745 161.354 145.893 161.172 146.189C160.99 146.482 160.894 146.941 160.884 147.566V149.178C160.884 149.842 160.977 150.337 161.162 150.662C161.348 150.988 161.639 151.15 162.036 151.15C162.417 151.15 162.699 151.001 162.881 150.701C163.063 150.398 163.159 149.926 163.169 149.285V147.679ZM170.118 152H168.937V146.292L167.193 146.888V145.887L169.967 144.866H170.118V152ZM177.453 149.026C177.056 149.446 176.592 149.656 176.062 149.656C175.437 149.656 174.938 149.438 174.567 149.002C174.196 148.562 174.011 147.986 174.011 147.273C174.011 146.805 174.105 146.38 174.294 145.999C174.483 145.618 174.751 145.322 175.1 145.11C175.448 144.899 175.852 144.793 176.311 144.793C177.027 144.793 177.595 145.06 178.015 145.594C178.435 146.128 178.645 146.842 178.645 147.737V148.069C178.645 149.352 178.355 150.33 177.775 151.004C177.196 151.678 176.332 152.02 175.183 152.029H175.041V151.048H175.212C175.912 151.038 176.449 150.87 176.823 150.545C177.198 150.216 177.408 149.71 177.453 149.026ZM176.311 148.729C176.548 148.729 176.771 148.66 176.979 148.523C177.188 148.387 177.349 148.198 177.463 147.957V147.493C177.463 146.969 177.355 146.548 177.141 146.229C176.926 145.91 176.647 145.75 176.306 145.75C175.964 145.75 175.69 145.892 175.485 146.175C175.284 146.455 175.183 146.81 175.183 147.239C175.183 147.685 175.285 148.045 175.49 148.318C175.695 148.592 175.969 148.729 176.311 148.729Z" fill="#486271" fill-opacity="0.5"/>
<defs>
<filter id="filter0_d" x="0" y="84" width="460" height="126" filterUnits="userSpaceOnUse" color-interpolation-filters="sRGB">
<feFlood flood-opacity="0" result="BackgroundImageFix"/>
<feColorMatrix in="SourceAlpha" type="matrix" values="0 0 0 0 0 0 0 0 0 0 0 0 0 0 0 0 0 0 127 0"/>
<feOffset dy="9"/>
<feGaussianBlur stdDeviation="7.5"/>
<feColorMatrix type="matrix" values="0 0 0 0 0 0 0 0 0 0 0 0 0 0 0 0 0 0 0.05 0"/>
<feBlend mode="normal" in2="BackgroundImageFix" result="effect1_dropShadow"/>
<feBlend mode="normal" in="SourceGraphic" in2="effect1_dropShadow" result="shape"/>
</filter>
</defs>
</svg>
